<?xml version="1.0" encoding="UTF-8"?>
<svg xmlns="http://www.w3.org/2000/svg" onmouseup="{ if(window.parent.document.onmouseup) window.parent.document.onmouseup(arguments[0]);}" xml:space="preserve" style="enable-background:new 0 0 579.7 579.7;" viewBox="0 0 579.7 579.7" y="0px" x="0px" id="Capa_1" version="1.1" xmlns:xlink="http://www.w3.org/1999/xlink"><style type="text/css">
	.st0{fill:url(#SVGID_1_);}
	.st1{fill:url(#SVGID_2_);}
</style><g><g><linearGradient y2="579.7" x2="289.9" y1="315.8" x1="289.9" gradientUnits="userSpaceOnUse" id="SVGID_1_"><stop style="stop-color:#76236C" offset="0"/><stop style="stop-color:#6E1F6B" offset="8.000000e-02"/><stop style="stop-color:#661B6B" offset="0.16"/><stop style="stop-color:#5E186A" offset="0.24"/><stop style="stop-color:#551569" offset="0.33"/><stop style="stop-color:#4A1969" offset="0.43"/><stop style="stop-color:#3F1C68" offset="0.54"/><stop style="stop-color:#341E67" offset="0.64"/><stop style="stop-color:#252364" offset="0.74"/><stop style="stop-color:#17265F" offset="0.84"/><stop style="stop-color:#0A2758" offset="0.92"/><stop style="stop-color:#022851" offset="1"/></linearGradient><path data-cppathid="10000" d="M63.7,428.9V542c0,20.8,16.9,37.7,37.7,37.7h377c20.8,0,37.7-16.9,37.7-37.7V428.9    c0-62.5-50.6-113.1-113.1-113.1h-9.7c-5.1,0-9.1,4.1-9.6,9.2c-4.6,47.8-44.8,85.1-93.8,85.1S200.7,372.7,196,325    c-0.5-5-4.6-9.2-9.6-9.2h-9.7C114.3,315.8,63.7,366.4,63.7,428.9z" class="st0"/><linearGradient y2="309.9" x2="289.8" y1="3.092282e-11" x1="289.8" gradientUnits="userSpaceOnUse" id="SVGID_2_"><stop style="stop-color:#76236C" offset="0"/><stop style="stop-color:#6E1F6B" offset="8.000000e-02"/><stop style="stop-color:#661B6B" offset="0.16"/><stop style="stop-color:#5E186A" offset="0.24"/><stop style="stop-color:#551569" offset="0.33"/><stop style="stop-color:#4A1969" offset="0.43"/><stop style="stop-color:#3F1C68" offset="0.54"/><stop style="stop-color:#341E67" offset="0.64"/><stop style="stop-color:#252364" offset="0.74"/><stop style="stop-color:#17265F" offset="0.84"/><stop style="stop-color:#0A2758" offset="0.92"/><stop style="stop-color:#022851" offset="1"/></linearGradient><path data-cppathid="10001" d="M289.8,309.9c74.9,0,135.6-69.4,135.6-155S364.7,0,289.8,0S154.2,69.4,154.2,155S215,309.9,289.8,309.9z     M289.8,155c35.4,0,64.9-17.9,74.2-42.2c13.9,16.8,22.7,38.1,22.7,61.6c0,53.5-43.4,96.9-96.9,96.9s-96.9-43.4-96.9-96.9    C193,150.8,254.5,155,289.8,155z" class="st1"/></g></g></svg>