<?xml version="1.0" encoding="UTF-8"?>
<svg xmlns="http://www.w3.org/2000/svg" onmouseup="{ if(window.parent.document.onmouseup) window.parent.document.onmouseup(arguments[0]);}" xml:space="preserve" style="enable-background:new 0 0 512 512;" viewBox="0 0 512 512" y="0px" x="0px" id="Layer_1" version="1.1" xmlns:xlink="http://www.w3.org/1999/xlink"><style type="text/css">
	.st0{fill:#03F9E6;}
</style><g id="Layer_2_1_"><g id="Capa_1"><path data-cppathid="10000" d="M310,190c-5.5,0-10,4.5-10,10s4.5,10,10,10s10-4.5,10-10S315.5,190,310,190z" class="st0"/><path data-cppathid="10001" d="M500.3,443.7L366.8,310.2c21.7-32.7,33.3-71,33.2-110.2C400,89.7,310.3,0,200,0S0,89.7,0,200    s89.7,200,200,200c39.2,0.1,77.6-11.5,110.2-33.2l36.9,36.9l0,0l96.6,96.6c15.3,15.9,40.7,16.3,56.6,1c15.9-15.3,16.3-40.7,1-56.6    C500.9,444.4,500.6,444,500.3,443.7L500.3,443.7z M305.5,345.7L305.5,345.7c-30.6,22.4-67.6,34.4-105.5,34.3    c-99.2,0-180-80.8-180-180S100.8,20,200,20s180,80.8,180,180c0.1,37.9-11.9,74.9-34.3,105.5C334.5,321,321,334.5,305.5,345.7    L305.5,345.7z M326.5,354.8c10.3-8.5,19.8-17.9,28.3-28.3l28.4,28.4c-8.6,10.2-18.1,19.6-28.3,28.3L326.5,354.8z M486.1,486.1    c-7.8,7.8-20.5,7.8-28.3,0l-88.8-88.8c10.1-8.7,19.6-18.1,28.3-28.3l88.8,88.8C493.9,465.7,493.9,478.3,486.1,486.1L486.1,486.1z" class="st0"/><path data-cppathid="10002" d="M200,40c-88.2,0-160,71.8-160,160s71.8,160,160,160s160-71.8,160-160S288.2,40,200,40z M200,340    c-77.2,0-140-62.8-140-140S122.8,60,200,60s140,62.8,140,140S277.2,340,200,340z" class="st0"/><path data-cppathid="10003" d="M312.1,157.1C294.2,110.7,249.7,80,200,80c-5.5,0-10,4.5-10,10s4.5,10,10,10c41.4,0.2,78.4,25.7,93.4,64.2    c2,5.2,7.8,7.7,12.9,5.7C311.5,168,314.1,162.2,312.1,157.1L312.1,157.1z" class="st0"/></g></g></svg>