<?xml version="1.0" encoding="UTF-8"?>
<svg xmlns="http://www.w3.org/2000/svg" onmouseup="{ if(window.parent.document.onmouseup) window.parent.document.onmouseup(arguments[0]);}" xml:space="preserve" style="enable-background:new 0 0 569.4 569.5;" viewBox="0 0 569.4 569.5" y="0px" x="0px" id="Layer_1" version="1.1" xmlns:xlink="http://www.w3.org/1999/xlink"><style type="text/css">
	.st0{fill:#03F9E6;}
</style><g id="Layer_2_1_"><g id="Layer_1-2"><path data-cppathid="10000" d="M1.2,52.2l38,66.4c1.3,2.2,3.4,3.9,5.9,4.5l35.3,8.9L202,253.4l13.4-13.4L92.1,116.6    c-1.2-1.2-2.7-2.1-4.4-2.5l-34-8.5L21.3,49L49,21.3l56.6,32.3l8.5,34c0.4,1.7,1.3,3.2,2.5,4.4L240,215.4l13.4-13.4L132,80.6    l-8.9-35.4c-0.6-2.5-2.3-4.7-4.5-5.9L52.2,1.3c-3.7-2.1-8.4-1.5-11.4,1.5l-37.9,38C-0.2,43.8-0.8,48.5,1.2,52.2z" class="st0"/><path data-cppathid="10001" d="M395.7,187L187,395.7l-13.4-13.4l208.7-208.7L395.7,187z" class="st0"/><path data-cppathid="10002" d="M150.4,403c-1.7-2.9-4.8-4.6-8.1-4.6H85.4c-3.3,0-6.4,1.7-8.1,4.6l-28.5,47.4c-1.8,3-1.8,6.8,0,9.8l28.5,47.4    c1.7,2.9,4.8,4.6,8.1,4.6h56.9c3.3,0,6.4-1.7,8.1-4.6l28.5-47.4c1.8-3,1.8-6.8,0-9.8L150.4,403z M136.9,493.3H90.8L68,455.4    l22.8-38H137l22.8,38L136.9,493.3z" class="st0"/><path data-cppathid="10003" d="M455.4,227.7c62.7,0.2,113.6-50.4,113.8-113.1c0-9.5-1.1-19-3.5-28.3c-1.3-5.1-6.4-8.2-11.5-6.9    c-1.7,0.4-3.2,1.3-4.4,2.5l-59,59l-46.9-15.6l-15.7-46.8l59-59.1c3.7-3.7,3.7-9.7,0-13.4c-1.2-1.2-2.8-2.1-4.4-2.5    C422.1-11.9,360.4,24.9,345,85.7c-2.3,9.2-3.5,18.7-3.5,28.1c0,7.5,0.8,14.9,2.3,22.2L136.1,343.8c-7.3-1.5-14.8-2.3-22.2-2.3    C51,341.5,0,392.5,0,455.4s51,113.8,113.8,113.8c62.9,0,113.8-51,113.8-113.8c0,0,0,0,0,0c0-7.5-0.8-14.9-2.3-22.2l49.7-49.7    l21.8,21.8c3.7,3.7,9.7,3.7,13.4,0l4.8-4.8c4.3-4,11.1-3.7,15,0.7c3.7,4.1,3.7,10.2,0,14.3l0,0l-4.7,4.7c-3.7,3.7-3.7,9.7,0,13.4    l113.1,113.2c30.2,29.6,78.7,29.2,108.3-1c29.1-29.6,29.3-76.9,0.5-106.8l-0.5-0.5L433.6,325.3c-3.7-3.7-9.7-3.7-13.4,0    c0,0,0,0,0,0l-4.7,4.7c-4.2,4.1-11,4-15-0.3c-4-4.1-4-10.6,0-14.7l0,0l4.8-4.8c3.7-3.7,3.7-9.7,0-13.4l-21.8-21.8l49.7-49.7    C440.4,226.9,447.9,227.7,455.4,227.7z M492.6,550.2c-6.9,0-13.7-1.3-20.2-3.7l74.1-74.1c11.2,29.7-3.9,62.9-33.6,74.1    C506.4,549,499.6,550.2,492.6,550.2z M385.1,303.7c-10.5,12.6-8.8,31.2,3.7,41.7c11,9.2,27,9.2,38,0l106.5,106.6    c1.2,1.1,2.2,2.4,3.3,3.6l-81.1,81.1c-1.2-1-2.5-2.1-3.6-3.3L345.4,426.8c10.5-12.6,8.8-31.2-3.7-41.7c-11-9.2-27-9.2-38,0    L288.4,370l81.6-81.5L385.1,303.7z M423.5,208.3L208.3,423.4c-2.4,2.4-3.3,5.8-2.5,9c13,51.1-17.9,103.1-69,116.1    c-51.1,13-103.1-17.9-116.1-69c-13-51.1,17.9-103.1,69-116.1c15.4-3.9,31.6-3.9,47.1,0c3.2,0.8,6.6-0.2,9-2.5l215.2-215.1    c2.4-2.4,3.3-5.8,2.5-9c-12.9-50.5,17.5-101.9,68-114.9c9.6-2.4,19.4-3.4,29.3-2.8l-50,50.1c-2.5,2.5-3.4,6.3-2.3,9.7l19,56.9    c0.9,2.8,3.2,5.1,6,6l56.9,19c3.4,1.1,7.2,0.2,9.7-2.3l50-50c0.1,1.8,0.2,3.6,0.2,5.4c0.3,52.1-41.8,94.6-93.9,94.9    c-8.1,0-16.1-0.9-23.9-3C429.2,205,425.8,206,423.5,208.3L423.5,208.3L423.5,208.3z" class="st0"/><path data-cppathid="10004" d="M490.5,477.1l-13.4,13.4l-94.9-94.9l13.4-13.4L490.5,477.1z" class="st0"/></g></g></svg>