<?xml version="1.0" encoding="UTF-8"?>
<svg xmlns="http://www.w3.org/2000/svg" onmouseup="{ if(window.parent.document.onmouseup) window.parent.document.onmouseup(arguments[0]);}" xml:space="preserve" style="enable-background:new 0 0 512 511.7;" viewBox="0 0 512 511.7" y="0px" x="0px" id="Layer_1" version="1.1" xmlns:xlink="http://www.w3.org/1999/xlink"><style type="text/css">
	.st0{fill:#03F9E6;}
</style><g id="Layer_2_1_"><g id="Capa_1"><path data-cppathid="10000" d="M462,0H166.2c-27.6,0-50,22.4-50,50v176.5C50.1,239.5,0,297.9,0,367.8c0,79.4,64.6,143.9,143.9,143.9H462    c27.6,0,50-22.4,50-50V50C512,22.4,489.6,0,462,0z M20,367.8c0-68.4,55.5-123.9,123.9-123.9s123.9,55.5,123.9,123.9    s-55.5,123.9-123.9,123.9c0,0,0,0,0,0C75.5,491.6,20.1,436.2,20,367.8z M184.2,221.9v-24c0-5.5,4.5-10,10-10h24    c5.5,0,10,4.5,10,10v24c0,5.5-4.5,10-10,10h-24C188.7,231.9,184.2,227.4,184.2,221.9C184.2,221.9,184.2,221.9,184.2,221.9    L184.2,221.9z M492,461.7c0,16.6-13.4,30-30,30H217c23.6-14,42.7-34.3,55.2-58.7v4.7c0,16.6,13.4,30,30,30h24    c16.6,0,30-13.4,30-30v-24c0-16.6-13.4-30-30-30l0,0h-24c-5.6,0-11.1,1.6-15.8,4.5c1-6.8,1.5-13.6,1.5-20.5c0-4-0.2-8-0.5-11.9    c4.5,2.6,9.6,3.9,14.8,3.9h24c16.6,0,30-13.4,30-30v-24c0-16.6-13.4-30-30-30l0,0h-24c-15.4,0-28.3,11.7-29.8,27    c-10.6-20.8-26.1-38.8-45.1-52.4c12.5-3.9,21-15.5,21-28.6v-24c0-16.6-13.4-30-30-30h-24c-16.6,0-30,13.4-30,30v24    c0,1.2,0.1,2.3,0.2,3.5c-6.8-1-13.7-1.5-20.5-1.5c-2.6,0-5.1,0.1-7.7,0.2V50c0-16.6,13.4-30,30-30H462c16.6,0,30,13.4,30,30V461.7    z M292.1,437.7v-24c0-5.5,4.5-10,10-10h24c5.5,0,10,4.5,10,10v24c0,5.5-4.5,10-10,10h-24C296.6,447.7,292.2,443.2,292.1,437.7    L292.1,437.7z M292.1,329.8v-24c0-5.5,4.5-10,10-10h24c5.5,0,10,4.5,10,10v24c0,5.5-4.5,10-10,10h-24    C296.6,339.8,292.2,335.3,292.1,329.8L292.1,329.8z" class="st0"/><path data-cppathid="10001" d="M454,44h-94.9c-5.5,0-10,4.5-10,10s4.5,10,10,10H444v60H184.2V64h85c5.5,0,10-4.5,10-10s-4.5-10-10-10h-95    c-5.5,0-10,4.5-10,10v79.9c0,5.5,4.5,10,10,10H454c5.5,0,10-4.5,10-10V54C464,48.5,459.5,44,454,44z" class="st0"/><path data-cppathid="10002" d="M326.1,167.9h-24c-16.6,0-30,13.4-30,30v24c0,16.6,13.4,30,30,30l0,0h24c16.6,0,30-13.4,30-30l0,0v-24    C356.1,181.3,342.7,167.9,326.1,167.9z M336.1,221.9c0,5.5-4.5,10-10,10h-24c-5.5,0-10-4.5-10-10v-24c0-5.5,4.5-10,10-10h24    c5.5,0,10,4.5,10,10V221.9z" class="st0"/><path data-cppathid="10003" d="M434,167.9h-24c-16.6,0-30,13.4-30,30v24c0,16.6,13.4,30,30,30l0,0h24c16.6,0,30-13.4,30-30l0,0v-24    C464,181.3,450.6,167.9,434,167.9z M444,221.9c0,5.5-4.5,10-10,10h-24c-5.5,0-10-4.5-10-10v-24c0-5.5,4.5-10,10-10h24    c5.5,0,10,4.5,10,10V221.9z" class="st0"/><path data-cppathid="10004" d="M434,275.8h-24c-16.6,0-30,13.4-30,30l0,0v131.9c0,16.6,13.4,30,30,30h24c16.6,0,30-13.4,30-30V305.8    C464,289.2,450.6,275.8,434,275.8z M444,437.7c0,5.5-4.5,10-10,10h-24c-5.5,0-10-4.5-10-10V305.8c0-5.5,4.5-10,10-10h24    c5.5,0,10,4.5,10,10V437.7z" class="st0"/><path data-cppathid="10005" d="M314.1,64c5.5,0,10-4.4,10.1-9.9s-4.4-10-9.9-10.1c-5.5,0-10,4.4-10.1,9.9c0,2.6,1,5.2,2.9,7.1    C308.9,62.9,311.5,64,314.1,64z" class="st0"/><path data-cppathid="10006" d="M176.5,302c-5-2.4-10.9-0.3-13.4,4.6l-55,113.2c-2.4,5-0.3,11,4.6,13.4c5,2.4,11,0.3,13.4-4.6l55-113.2    C183.5,310.4,181.5,304.4,176.5,302C176.5,302,176.5,302,176.5,302z" class="st0"/><path data-cppathid="10007" d="M118.7,296.4c-12.5-12.5-32.8-12.5-45.3,0s-12.5,32.8,0,45.3s32.8,12.5,45.3,0c0,0,0,0,0,0    C131.1,329.1,131.1,308.9,118.7,296.4z M104.5,327.5c-4.7,4.7-12.3,4.7-17,0c-4.7-4.7-4.7-12.3,0-17c4.7-4.7,12.3-4.7,16.9,0    C109.2,315.2,109.2,322.8,104.5,327.5C104.5,327.5,104.5,327.5,104.5,327.5z" class="st0"/><path data-cppathid="10008" d="M170.9,393.9c-12.5,12.5-12.5,32.8,0,45.3c12.5,12.5,32.8,12.5,45.3,0s12.5-32.8,0-45.3c0,0,0,0,0,0    C203.7,381.4,183.4,381.4,170.9,393.9z M202,425c-4.7,4.7-12.3,4.7-17,0c-4.7-4.7-4.7-12.3,0-17c4.7-4.7,12.3-4.7,16.9,0    C206.7,412.7,206.7,420.3,202,425C202,425,202,425,202,425z" class="st0"/></g></g></svg>