<?xml version="1.0" encoding="UTF-8"?>
<svg xmlns="http://www.w3.org/2000/svg" onmouseup="{ if(window.parent.document.onmouseup) window.parent.document.onmouseup(arguments[0]);}" xml:space="preserve" style="enable-background:new 0 0 512 511.7;" viewBox="0 0 512 511.7" y="0px" x="0px" id="Layer_1" version="1.1" xmlns:xlink="http://www.w3.org/1999/xlink"><style type="text/css">
	.st0{fill:#FFFFFF;}
</style><g id="Layer_2_1_"><g id="Capa_1"><path data-cppathid="10000" d="M117.1,438.9l-8.2-57.8c-1.2-8.2-8.8-14-17-12.8s-14,8.8-12.8,17l1.8,13c-15.7-19.4-28.1-41.3-36.7-64.7    c-61-166.8,86.3-335,258.1-298.3c8.1,1.7,16.1-3.5,17.9-11.6c1.7-8.1-3.5-16.1-11.6-17.9C114.7-35.6-53.6,153.7,16,343.9    c9.7,26.5,23.7,51.3,41.5,73.2L43,414.3c-8.2-1.6-16,3.8-17.6,11.9s3.8,16,11.9,17.6l60.8,11.7    C109.1,458.6,118.5,449.1,117.1,438.9L117.1,438.9z" class="st0"/><path data-cppathid="10001" d="M496.3,168c-9.7-26.5-23.7-51.3-41.5-73.2l14.5,2.8c8.2,1.6,16.1-3.8,17.6-12s-3.8-16.1-12-17.6l0,0    l-60.8-11.7c-8-2.2-16.4,2.4-18.6,10.5c-0.6,2-0.7,4.1-0.4,6.2l8.2,57.8c1.2,8.2,8.8,14,17,12.8s14-8.8,12.8-17l-1.8-12.9    c15.7,19.4,28.1,41.3,36.7,64.7c42.7,116.8-17.4,246.7-133.9,289.4c-39.7,14.6-82.7,17.7-124.1,8.9c-8.1-1.7-16.1,3.4-17.9,11.6    c-1.7,8.1,3.4,16.1,11.6,17.9c46.9,10,95.7,6.5,140.8-10.1C477,447.4,544.8,300.7,496.3,168z" class="st0"/><path data-cppathid="10002" d="M412.1,256.7c0-86.1-70-156.2-156-156.2s-156,70.1-156,156.2s70,156.2,156,156.2S412.1,342.9,412.1,256.7z     M130.3,256.7c0-69.6,56.5-126.1,125.9-126.1S382,187.1,382,256.7s-56.5,126.1-125.9,126.1S130.3,326.3,130.3,256.7L130.3,256.7z" class="st0"/><path data-cppathid="10003" d="M271.2,341.2v-12.6c26.1,0,44.2-20.5,44.2-43.5c0-24-19.4-43.4-43.4-43.5h-31.6c-7.4,0.1-13.5-5.8-13.7-13.2    s5.8-13.5,13.2-13.7c0.2,0,0.5,0,0.7,0h30.3c5.5,0.1,10.7,2.5,14.4,6.6c5.7,6.1,15.2,6.4,21.3,0.7s6.4-15.2,0.7-21.3    c-9.3-10-22.3-15.8-36-16.1V172c0-8.3-6.7-15.1-15-15.1c-8.3,0-15.1,6.7-15.1,15.1l0,0v12.6c-26.1,0-44.2,20.5-44.2,43.5    c0,24,19.5,43.5,43.5,43.5H272c7.4,0,13.4,6,13.4,13.4s-6,13.4-13.4,13.4l0,0h-33.3c-4-0.1-7.9-1.5-11.2-3.8    c-6.8-4.7-16.2-3.1-20.9,3.8c-4.7,6.8-3.1,16.2,3.8,20.9l0,0c10.3,7.2,19.9,9.2,30.8,9.2v12.6c0,8.3,6.7,15.1,15,15.1    C264.5,356.3,271.2,349.6,271.2,341.2L271.2,341.2z" class="st0"/></g></g></svg>