<?xml version="1.0" encoding="UTF-8"?>
<svg xmlns="http://www.w3.org/2000/svg" onmouseup="{ if(window.parent.document.onmouseup) window.parent.document.onmouseup(arguments[0]);}" xml:space="preserve" style="enable-background:new 0 0 360.3 360.3;" viewBox="0 0 360.3 360.3" y="0px" x="0px" id="Layer_1" version="1.1" xmlns:xlink="http://www.w3.org/1999/xlink"><style type="text/css">
	.st0{fill:#FFFFFF;}
</style><g id="Layer_2_1_"><g id="Layer_1-2"><path data-cppathid="10000" d="M352.3,8.4C347.1,3,340,0,332.6,0h-0.2c-15.5-0.1-28.1,12.4-28.1,27.9C304.2,43.4,316.7,56,332.2,56l0,0h0.2    c15.5,0,28-12.5,28-28C360.4,20.7,357.5,13.6,352.3,8.4L352.3,8.4z M332.3,45.7h-0.1c-9.7-0.1-17.6-8-17.5-17.8l0,0    c0.1-9.7,8-17.5,17.6-17.5h0.1c9.7,0,17.6,8,17.6,17.7S342,45.7,332.3,45.7L332.3,45.7L332.3,45.7z" class="st0"/><path data-cppathid="10001" d="M28.2,152.2H28c-15.5-0.1-28,12.4-28.1,27.9s12.4,28,27.9,28.1l0,0H28c15.5,0.1,28.1-12.4,28.1-27.9    C56.2,164.8,43.7,152.2,28.2,152.2z M28,197.8h-0.1c-9.7-0.3-17.4-8.4-17.2-18.1c0.3-9.4,7.9-17,17.3-17.2h0.1    c9.7,0.3,17.4,8.4,17.2,18.1C45.1,190.1,37.4,197.6,28,197.8z" class="st0"/><path data-cppathid="10002" d="M133.6,46.8h-0.2c-15.5-0.1-28.1,12.4-28.1,27.9c-0.1,15.5,12.4,28.1,27.9,28.1h0.2    c15.5,0.1,28.1-12.4,28.1-27.9C161.5,59.5,149.1,46.9,133.6,46.8z M133.4,92.5h-0.1c-9.7-0.3-17.4-8.4-17.2-18.1    c0.3-9.4,7.9-17,17.3-17.2h0.1c9.7,0,17.6,8,17.6,17.7S143.1,92.5,133.4,92.5L133.4,92.5z" class="st0"/><path data-cppathid="10003" d="M209.7,122.9h-0.2c-15.5-0.1-28,12.4-28.1,27.9s12.4,28,27.9,28.1l0,0h0.2c15.5,0.1,28.1-12.4,28.1-27.9    C237.6,135.6,225.1,123,209.7,122.9L209.7,122.9z M209.4,168.6h-0.1c-9.7,0-17.6-8-17.6-17.7s8-17.6,17.7-17.6h0.1    c9.7,0.3,17.4,8.4,17.2,18.1C226.5,160.8,218.9,168.4,209.4,168.6L209.4,168.6z" class="st0"/><rect data-cppathid="10004" height="10.3" width="128.2" class="st0" transform="matrix(0.7062 -0.708 0.708 0.7062 16.2881 217.9565)" y="84.2" x="206.7"/><rect data-cppathid="10005" height="62" width="10.3" class="st0" transform="matrix(0.7071 -0.7071 0.7071 0.7071 -29.6622 154.2624)" y="81.9" x="166.2"/><rect data-cppathid="10006" height="10.3" width="103.4" class="st0" transform="matrix(0.7071 -0.7071 0.7071 0.7071 -66.4861 94.3634)" y="122.3" x="29"/><path data-cppathid="10007" d="M296.7,106.5v253.8h63.6V106.5H296.7z M307.1,350V116.9H350V350H307.1z" class="st0"/><path data-cppathid="10008" d="M197.8,213v147.3h63.6V213H197.8z M251.1,350h-42.9V223.4h42.9V350z" class="st0"/><path data-cppathid="10009" d="M98.9,205.4v154.9h63.6V205.4H98.9z M152.2,350h-42.9V215.8h42.9V350z" class="st0"/><path data-cppathid="10010" d="M0,243.5v116.9h63.6V243.5H0z M53.3,350h-43v-96.2h42.9L53.3,350L53.3,350z" class="st0"/></g></g></svg>