<?xml version="1.0" encoding="UTF-8"?>
<svg xmlns="http://www.w3.org/2000/svg" onmouseup="{ if(window.parent.document.onmouseup) window.parent.document.onmouseup(arguments[0]);}" viewBox="0 0 490 490" xmlns:xlink="http://www.w3.org/1999/xlink"><defs><style>.cls-1{fill:none;}.cls-2{isolation:isolate;}.cls-3{clip-path:url(#clip-path);}.cls-4{opacity:0.9;mix-blend-mode:multiply;fill:url(#New_Gradient_Swatch_1);}</style><clipPath transform="translate(-0.04 0)" id="clip-path"><path data-cppathid="10000" d="M488.09,217.64c-.77-6.88-8.8-12.06-15.74-12.06a54.06,54.06,0,0,1-37-94.08A13.62,13.62,0,0,0,436.84,93a242.79,242.79,0,0,0-38.78-39.17,13.64,13.64,0,0,0-18.61,1.51c-14.59,16.16-40.8,22.17-61.06,13.72a54.4,54.4,0,0,1-33.07-53.16,13.58,13.58,0,0,0-12-14.3,243.87,243.87,0,0,0-55.08-.14,13.62,13.62,0,0,0-12.12,14,54.48,54.48,0,0,1-33.53,52.23c-20,8.18-46,2.21-60.6-13.8A13.64,13.64,0,0,0,93.5,52.38,243.25,243.25,0,0,0,53.9,91.53a13.61,13.61,0,0,0,1.46,18.6,54.26,54.26,0,0,1,13.69,61.09c-8.45,20.13-29.35,33.09-53.27,33.09a13.32,13.32,0,0,0-14.14,12A245,245,0,0,0,1.53,272c.77,6.91,9,12,16.06,12,21.32-.54,41.78,12.65,50.37,33.54a54.47,54.47,0,0,1-13.69,60.55,13.58,13.58,0,0,0-1.48,18.44,242.83,242.83,0,0,0,38.72,39.18,13.61,13.61,0,0,0,18.63-1.47c14.65-16.2,40.86-22.2,61-13.73a54.29,54.29,0,0,1,33.13,53.13,13.6,13.6,0,0,0,12,14.31,244.8,244.8,0,0,0,55.08.15,13.64,13.64,0,0,0,12.12-14A54.42,54.42,0,0,1,317,421.92c20.15-8.23,46.06-2.21,60.63,13.79a13.68,13.68,0,0,0,18.48,1.55,244.08,244.08,0,0,0,39.6-39.16,13.6,13.6,0,0,0-1.46-18.61,54.24,54.24,0,0,1-13.71-61.07,54.79,54.79,0,0,1,50.07-33.19l3,.09a13.64,13.64,0,0,0,14.33-12A243.85,243.85,0,0,0,488.09,217.64ZM244.81,386A141.13,141.13,0,1,1,366,317.19l-61.8-61.81a86.57,86.57,0,0,0-102.5-117.26,9.79,9.79,0,0,0-6.78,6.83,9.55,9.55,0,0,0,2.71,9.35s30.52,30.75,40.72,41c1.07,1.07,1.07,3.62.92,4.54l-.09.67c-1,11.22-3,24.69-4.65,29.87-.22.22-.43.4-.66.63l-.67.69c-5.25,1.68-18.93,3.69-30.33,4.71v-.06l-.51.13-.48,0a6.51,6.51,0,0,1-4.7-2c-10.62-10.62-39.94-39.73-39.94-39.73a10,10,0,0,0-7.12-3.17,9.7,9.7,0,0,0-9.13,7.37A86.58,86.58,0,0,0,258.29,301.28l62.47,62.47A140.38,140.38,0,0,1,244.81,386Z" class="cls-1"/></clipPath><linearGradient gradientUnits="userSpaceOnUse" y2="490" x2="245" x1="245" id="New_Gradient_Swatch_1"><stop stop-color="#76236c" offset="0"/><stop stop-color="#6e1f6b" offset="0.08"/><stop stop-color="#661b6b" offset="0.16"/><stop stop-color="#5e186a" offset="0.24"/><stop stop-color="#551569" offset="0.33"/><stop stop-color="#4a1969" offset="0.43"/><stop stop-color="#3f1c68" offset="0.54"/><stop stop-color="#341e67" offset="0.64"/><stop stop-color="#252364" offset="0.74"/><stop stop-color="#17265f" offset="0.84"/><stop stop-color="#0a2758" offset="0.92"/><stop stop-color="#022851" offset="1"/></linearGradient></defs><g class="cls-2"><g data-name="Layer 2" id="Layer_2"><g data-name="Services Icon" id="Services_Icon"><g class="cls-3"><rect data-cppathid="10001" height="490" width="490" class="cls-4" id="Blue"/></g></g></g></g></svg>