<?xml version="1.0" encoding="UTF-8"?>
<svg xmlns="http://www.w3.org/2000/svg" onmouseup="{ if(window.parent.document.onmouseup) window.parent.document.onmouseup(arguments[0]);}" xml:space="preserve" style="enable-background:new 0 0 512 510;" viewBox="0 0 512 510" y="0px" x="0px" id="Layer_1" version="1.1" xmlns:xlink="http://www.w3.org/1999/xlink"><style type="text/css">
	.st0{fill:url(#SVGID_1_);}
	.st1{fill:url(#SVGID_2_);}
	.st2{fill:url(#SVGID_3_);}
</style><g id="Layer_2_1_"><g id="Layer_1-2"><linearGradient gradientTransform="matrix(1 0 0 -1 0 509.8898)" y2="423.0598" x2="212.9506" y1="-7.752335e-02" x1="212.9506" gradientUnits="userSpaceOnUse" id="SVGID_1_"><stop style="stop-color:#00B2E3" offset="0"/><stop style="stop-color:#32B9E5" offset="0.25"/><stop style="stop-color:#4AC1E7" offset="0.5"/><stop style="stop-color:#5EC8E9" offset="0.75"/><stop style="stop-color:#6FCFEB" offset="1"/></linearGradient><path data-cppathid="10000" d="M371.3,248.4h-42.2l-170,170c-9.4,9.4-24.6,9.4-33.9,0.1c0,0,0,0-0.1-0.1l-31.8-31.8    c-9.4-9.4-9.4-24.6-0.1-33.9c0,0,0,0,0.1-0.1l104.2-104.2h-41.7L310.7,94.3l-7.6-7.5L139,249.9l-27.1,26.9l-86.5,85.9    C-8.3,396.2-8.5,450.6,25,484.3c0.1,0.1,0.2,0.2,0.2,0.2l0.3,0.3c14.7,14.6,34.2,23.5,54.9,24.9c5.7,0.4,11.5,0.3,17.2-0.4    c19.2-2.3,37-10.9,50.8-24.5l277.5-275.7l-7.6-7.5L371.3,248.4z" class="st0"/><linearGradient gradientTransform="matrix(1 0 0 -1 0 509.8898)" y2="509.8922" x2="406.6722" y1="299.8356" x1="406.6722" gradientUnits="userSpaceOnUse" id="SVGID_2_"><stop style="stop-color:#00B2E3" offset="0"/><stop style="stop-color:#32B9E5" offset="0.25"/><stop style="stop-color:#4AC1E7" offset="0.5"/><stop style="stop-color:#5EC8E9" offset="0.75"/><stop style="stop-color:#6FCFEB" offset="1"/></linearGradient><path data-cppathid="10001" d="M505.7,134L377.3,6.2c-8.4-8.3-21.9-8.3-30.3,0l-39.5,39.5c-8.4,8.3-8.4,21.9-0.1,30.2c0,0,0.1,0.1,0.1,0.1    l128.4,127.8c8.4,8.3,21.9,8.3,30.3,0l39.5-39.5c8.4-8.3,8.6-21.7,0.4-30.1C506,134.1,505.9,134,505.7,134z M349,67.9    c-2,2.1-5.4,2.1-7.4,0.1c0,0-0.1-0.1-0.1-0.1c-2.1-2.1-2.1-5.4,0-7.5L362,39.9c2-2.1,5.4-2.1,7.4-0.1c0,0,0.1,0.1,0.1,0.1    c2.1,2.1,2.1,5.4,0,7.5L349,67.9z M374.5,93.5c-2,2.1-5.4,2.1-7.4,0.1c0,0-0.1-0.1-0.1-0.1c-2.1-2.1-2.1-5.4,0-7.5l20.5-20.5    c2-2.1,5.4-2.1,7.4-0.1c0,0,0.1,0.1,0.1,0.1c2.1,2.1,2.1,5.4,0,7.5L374.5,93.5z M400.1,119.1c-2,2.1-5.4,2.1-7.4,0.1    c0,0-0.1-0.1-0.1-0.1c-2.1-2.1-2.1-5.4,0-7.5L413,91.1c2-2.1,5.4-2.1,7.4-0.1c0,0,0.1,0.1,0.1,0.1c2.1,2.1,2.1,5.4,0,7.5    L400.1,119.1z M425.7,144.6c-2,2.1-5.3,2.1-7.4,0.1c0,0-0.1-0.1-0.1-0.1c-2.1-2.1-2.1-5.4,0-7.5l20.5-20.5c2-2.1,5.4-2.1,7.4-0.1    c0,0,0.1,0.1,0.1,0.1c2.1,2.1,2.1,5.4,0,7.5L425.7,144.6z M451.3,170.2c-2,2.1-5.4,2.1-7.4,0.1c0,0-0.1-0.1-0.1-0.1    c-2.1-2.1-2.1-5.4,0-7.5l20.5-20.5c2-2.1,5.3-2.1,7.4-0.1c0,0,0.1,0.1,0.1,0.1c2.1,2.1,2.1,5.4,0,7.5L451.3,170.2z" class="st1"/><linearGradient gradientTransform="matrix(1 0 0 -1 0 509.8898)" y2="343.0594" x2="220.85" y1="95.0602" x1="220.85" gradientUnits="userSpaceOnUse" id="SVGID_3_"><stop style="stop-color:#00B2E3" offset="0"/><stop style="stop-color:#32B9E5" offset="0.25"/><stop style="stop-color:#4AC1E7" offset="0.5"/><stop style="stop-color:#5EC8E9" offset="0.75"/><stop style="stop-color:#6FCFEB" offset="1"/></linearGradient><path data-cppathid="10002" d="M132.6,410.9c5.2,5.2,13.7,5.2,18.9,0L341,221.4c5.2-5.2,5.2-13.7,0-18.9l-31.8-31.8    c-5.2-5.2-13.7-5.2-18.9,0L100.7,360.1c-5.2,5.2-5.2,13.7,0,18.9L132.6,410.9z" class="st2"/></g></g></svg>