<?xml version="1.0" encoding="UTF-8"?>
<svg xmlns="http://www.w3.org/2000/svg" onmouseup="{ if(window.parent.document.onmouseup) window.parent.document.onmouseup(arguments[0]);}" xml:space="preserve" style="enable-background:new 0 0 512 512;" viewBox="0 0 512 512" y="0px" x="0px" id="Layer_1" version="1.1" xmlns:xlink="http://www.w3.org/1999/xlink"><style type="text/css">
	.st0{display:none;}
	.st1{display:inline;}
	.st2{fill:url(#SVGID_1_);}
	.st3{fill:url(#SVGID_2_);}
</style><g class="st0" id="Layer_2_1_"><g class="st1" id="Capa_1"><linearGradient gradientTransform="matrix(0.8684 0.4959 0.4959 -0.8684 -180.4296 349.89)" y2="297.949" x2="588.4764" y1="297.949" x1="76.4576" gradientUnits="userSpaceOnUse" id="SVGID_1_"><stop style="stop-color:#76236C" offset="0"/><stop style="stop-color:#6E1F6B" offset="8.000000e-02"/><stop style="stop-color:#661B6B" offset="0.16"/><stop style="stop-color:#5E186A" offset="0.24"/><stop style="stop-color:#551569" offset="0.33"/><stop style="stop-color:#4A1969" offset="0.43"/><stop style="stop-color:#3F1C68" offset="0.54"/><stop style="stop-color:#341E67" offset="0.64"/><stop style="stop-color:#252364" offset="0.74"/><stop style="stop-color:#17265F" offset="0.84"/><stop style="stop-color:#0A2758" offset="0.92"/><stop style="stop-color:#022851" offset="1"/></linearGradient><path data-cppathid="10000" d="M382.9,33.7C260.8-36,103.4,7,33.7,129.1S7,408.6,129.1,478.3s279.5,26.7,349.3-95.4S505,103.4,382.9,33.7z" class="st2"/></g></g><g id="Layer_2_2_"><g id="Capa_1_1_"><linearGradient gradientTransform="matrix(1 0 0 1 0 -330)" y2="841.9" x2="256" y1="329.9" x1="256" gradientUnits="userSpaceOnUse" id="SVGID_2_"><stop style="stop-color:#76236C" offset="0"/><stop style="stop-color:#6E1F6B" offset="8.000000e-02"/><stop style="stop-color:#661B6B" offset="0.16"/><stop style="stop-color:#5E186A" offset="0.24"/><stop style="stop-color:#551569" offset="0.33"/><stop style="stop-color:#4A1969" offset="0.43"/><stop style="stop-color:#3F1C68" offset="0.54"/><stop style="stop-color:#341E67" offset="0.64"/><stop style="stop-color:#252364" offset="0.74"/><stop style="stop-color:#17265F" offset="0.84"/><stop style="stop-color:#0A2758" offset="0.92"/><stop style="stop-color:#022851" offset="1"/></linearGradient><path data-cppathid="10001" d="M256-0.1C115.4-0.1,0,115.3,0,255.9s115.4,256,256,256s256-115.4,256-256S396.6-0.1,256-0.1z M372.7,118    c5.9-5.9,15.4-5.9,21.2,0s5.9,15.4,0,21.2c-5.9,5.9-15.3,5.9-21.2,0C366.8,133.4,366.8,123.9,372.7,118L372.7,118z M241,75.9    c0-8.3,6.7-15,15-15c8.3,0,15,6.7,15,15v30c0,8.3-6.7,15-15,15s-15-6.7-15-15V75.9z M76,270.9c-8.3,0-15-6.7-15-15s6.7-15,15-15    h30c8.3,0,15,6.7,15,15c0,8.3-6.7,15-15,15H76z M139.3,393.8c-5.9,5.9-15.4,5.9-21.2,0s-5.9-15.4,0-21.2c5.9-5.9,15.3-5.9,21.2,0    C145.2,378.4,145.2,387.9,139.3,393.8L139.3,393.8z M139.3,139.2c-5.9,5.9-15.4,5.9-21.2,0s-5.9-15.4,0-21.2    c5.9-5.9,15.3-5.9,21.2,0S145.2,133.4,139.3,139.2L139.3,139.2L139.3,139.2z M271,435.9c0,8.3-6.7,15-15,15s-15-6.7-15-15v-30    c0-8.3,6.7-15,15-15c8.3,0,15,6.7,15,15V435.9z M356.6,356.5c-5.9,5.9-15.4,5.9-21.2,0l0,0l-90-90c-2.8-2.8-4.4-6.6-4.4-10.6v-90    c0-8.3,6.7-15,15-15c8.3,0,15,6.7,15,15v83.8l85.6,85.6C362.5,341.1,362.5,350.6,356.6,356.5L356.6,356.5z M393.9,393.8    c-5.9,5.9-15.4,5.9-21.2,0s-5.9-15.4,0-21.2c5.9-5.9,15.3-5.9,21.2,0C399.5,378.4,399.2,387.8,393.9,393.8L393.9,393.8z     M451,255.9c0,8.3-6.7,15-15,15l0,0h-30c-8.3,0-15-6.7-15-15s6.7-15,15-15h30C444.3,240.9,451,247.6,451,255.9L451,255.9z" class="st3"/></g></g></svg>