<?xml version="1.0" encoding="UTF-8"?>
<svg xmlns="http://www.w3.org/2000/svg" onmouseup="{ if(window.parent.document.onmouseup) window.parent.document.onmouseup(arguments[0]);}" xml:space="preserve" style="enable-background:new 0 0 512 512;" viewBox="0 0 512 512" y="0px" x="0px" id="Capa_1" version="1.1" xmlns:xlink="http://www.w3.org/1999/xlink"><style type="text/css">
	.st0{fill:url(#SVGID_1_);}
	.st1{fill:url(#SVGID_2_);}
	.st2{fill:url(#SVGID_3_);}
	.st3{display:none;}
	.st4{display:inline;}
	.st5{display:inline;opacity:0.9;clip-path:url(#SVGID_5_);fill:url(#Blue_1_);}
</style><g><linearGradient y2="0" x2="255.5" y1="99" x1="255.5" gradientUnits="userSpaceOnUse" id="SVGID_1_"><stop style="stop-color:#00B2E3" offset="0"/><stop style="stop-color:#32B9E5" offset="0.25"/><stop style="stop-color:#4AC1E7" offset="0.5"/><stop style="stop-color:#5EC8E9" offset="0.75"/><stop style="stop-color:#6FCFEB" offset="1"/></linearGradient><path data-cppathid="10000" d="M422.5,99V75c0-41.4-33.6-75-75-75h-184c-41.4,0-75,33.6-75,75v24H422.5z" class="st0"/><linearGradient y2="319" x2="255.5" y1="512" x1="255.5" gradientUnits="userSpaceOnUse" id="SVGID_2_"><stop style="stop-color:#00B2E3" offset="0"/><stop style="stop-color:#32B9E5" offset="0.25"/><stop style="stop-color:#4AC1E7" offset="0.5"/><stop style="stop-color:#5EC8E9" offset="0.75"/><stop style="stop-color:#6FCFEB" offset="1"/></linearGradient><path data-cppathid="10001" d="M118.5,319v122v26v15c0,16.6,13.4,30,30,30h214c16.6,0,30-13.4,30-30v-15v-26V319H118.5z M295.5,447h-80   c-8.3,0-15-6.7-15-15s6.7-15,15-15h80c8.3,0,15,6.7,15,15S303.8,447,295.5,447z M295.5,383h-80c-8.3,0-15-6.7-15-15s6.7-15,15-15   h80c8.3,0,15,6.7,15,15S303.8,383,295.5,383z" class="st1"/><linearGradient y2="129" x2="256" y1="399" x1="256" gradientUnits="userSpaceOnUse" id="SVGID_3_"><stop style="stop-color:#00B2E3" offset="0"/><stop style="stop-color:#32B9E5" offset="0.25"/><stop style="stop-color:#4AC1E7" offset="0.5"/><stop style="stop-color:#5EC8E9" offset="0.75"/><stop style="stop-color:#6FCFEB" offset="1"/></linearGradient><path data-cppathid="10002" d="M436.5,129h-361c-41.4,0-75,33.6-75,75v120c0,41.4,33.6,75,75,75h13v-80h-9c-8.3,0-15-6.7-15-15s6.7-15,15-15   h24h304h24c8.3,0,15,6.7,15,15s-6.7,15-15,15h-9v80h14c41.4,0,75-33.6,75-75V204C511.5,162.6,477.9,129,436.5,129z M127.5,223h-48   c-8.3,0-15-6.7-15-15s6.7-15,15-15h48c8.3,0,15,6.7,15,15S135.8,223,127.5,223z" class="st2"/></g><g class="st3"><defs><path data-cppathid="10003" d="M499.8,228.9c-0.8-6.9-8.8-12.1-15.7-12.1c-22.4,0-42.3-13.2-50.7-33.5c-8.5-20.9-3-45.2,13.7-60.5    c5.3-4.8,5.9-12.9,1.5-18.5C437,89.7,424,76.6,409.7,65.1c-5.6-4.5-13.8-3.8-18.6,1.5c-14.6,16.2-40.8,22.2-61.1,13.7    C309,71.5,295.7,50.1,297,27.2c0.4-7.2-4.8-13.5-12-14.3c-18.3-2.1-36.7-2.2-55.1-0.1c-7.1,0.8-12.4,6.9-12.1,14    c0.8,22.7-12.7,43.7-33.5,52.2c-20,8.2-46,2.2-60.6-13.8c-4.8-5.3-12.9-5.9-18.5-1.5c-14.7,11.5-28,24.7-39.6,39.2    c-4.5,5.6-3.8,13.8,1.5,18.6c17,15.4,22.5,40,13.7,61.1c-8.4,20.1-29.3,33.1-53.3,33.1c-7.8-0.2-13.3,5-14.1,12    c-2.2,18.4-2.2,37.1-0.1,55.7c0.8,6.9,9,12,16.1,12c21.3-0.5,41.8,12.6,50.4,33.5c8.6,20.9,3,45.2-13.7,60.5    c-5.2,4.8-5.9,12.9-1.5,18.4c11.4,14.5,24.4,27.7,38.7,39.2c5.6,4.5,13.8,3.9,18.6-1.5c14.6-16.2,40.9-22.2,61-13.7    C204,440.7,217.3,462,216,485c-0.4,7.2,4.9,13.5,12,14.3c9.4,1.1,18.8,1.6,28.2,1.6c9,0,17.9-0.5,26.9-1.5    c7.1-0.8,12.4-6.9,12.1-14c-0.8-22.7,12.7-43.7,33.5-52.2c20.1-8.2,46.1-2.2,60.6,13.8c4.8,5.3,12.8,5.9,18.5,1.5    c14.6-11.5,28-24.7,39.6-39.2c4.5-5.6,3.9-13.8-1.5-18.6c-17-15.4-22.6-40-13.7-61.1c8.3-19.9,28.4-33.2,50.1-33.2l3,0.1    c7,0.6,13.5-4.8,14.3-12C501.8,266.2,501.9,247.5,499.8,228.9z M256.5,397.2c-78,0-141.1-63.2-141.1-141.1S178.5,115,256.5,115    s141.1,63.2,141.1,141.1c0,26.5-7.3,51.2-20,72.4l-61.8-61.8c4.5-10.5,6.8-22,6.8-33.8c0-23.1-9-44.8-25.3-61.2    c-16.3-16.3-38.1-25.3-61.2-25.3c-7.7,0-15.4,1-22.8,3c-3.3,0.9-5.9,3.6-6.8,6.8c-0.9,3.3,0.1,6.7,2.7,9.4c0,0,30.5,30.7,40.7,41    c1.1,1.1,1.1,3.6,0.9,4.5l-0.1,0.7c-1,11.2-3,24.7-4.7,29.9c-0.2,0.2-0.4,0.4-0.7,0.6c-0.2,0.2-0.5,0.5-0.7,0.7    c-5.2,1.7-18.9,3.7-30.3,4.7l0-0.1l-0.5,0.1c-0.1,0-0.3,0-0.5,0c-1.2,0-3-0.3-4.7-2c-10.6-10.6-39.9-39.7-39.9-39.7    c-2.6-2.6-5.3-3.2-7.1-3.2c-4.2,0-7.9,3-9.1,7.4c-8.1,29.9,0.5,62,22.3,83.8c16.3,16.3,38.1,25.3,61.2,25.3    c11.8,0,23.2-2.4,33.8-6.8l62.5,62.5C310.5,389.1,284.5,397.2,256.5,397.2z" id="SVGID_4_"/></defs><clipPath class="st4" id="SVGID_5_"><use style="overflow:visible;" xlink:href="#SVGID_4_"/></clipPath><linearGradient y2="501.2744" x2="256.7254" y1="11.2744" x1="256.7254" gradientUnits="userSpaceOnUse" id="Blue_1_"><stop style="stop-color:#76236C" offset="0"/><stop style="stop-color:#6E1F6B" offset="8.000000e-02"/><stop style="stop-color:#661B6B" offset="0.16"/><stop style="stop-color:#5E186A" offset="0.24"/><stop style="stop-color:#551569" offset="0.33"/><stop style="stop-color:#4A1969" offset="0.43"/><stop style="stop-color:#3F1C68" offset="0.54"/><stop style="stop-color:#341E67" offset="0.64"/><stop style="stop-color:#252364" offset="0.74"/><stop style="stop-color:#17265F" offset="0.84"/><stop style="stop-color:#0A2758" offset="0.92"/><stop style="stop-color:#022851" offset="1"/></linearGradient><rect data-cppathid="10004" height="490" width="490" class="st5" y="11.3" x="11.7" id="Blue_5_"/></g></svg>