<?xml version="1.0" encoding="UTF-8"?>
<svg xmlns="http://www.w3.org/2000/svg" onmouseup="{ if(window.parent.document.onmouseup) window.parent.document.onmouseup(arguments[0]);}" xml:space="preserve" style="enable-background:new 0 0 512 512;" viewBox="0 0 512 512" y="0px" x="0px" id="Capa_1" version="1.1" xmlns:xlink="http://www.w3.org/1999/xlink"><style type="text/css">
	.st0{fill:url(#SVGID_1_);}
	.st1{fill:url(#SVGID_2_);}
	.st2{fill:url(#SVGID_3_);}
	.st3{fill:url(#SVGID_4_);}
	.st4{fill:url(#SVGID_5_);}
	.st5{fill:url(#SVGID_6_);}
	.st6{fill:url(#SVGID_7_);}
	.st7{fill:url(#SVGID_8_);}
	.st8{fill:url(#SVGID_9_);}
	.st9{fill:url(#SVGID_10_);}
	.st10{fill:url(#SVGID_11_);}
	.st11{fill:url(#SVGID_12_);}
	.st12{fill:url(#SVGID_13_);}
	.st13{fill:url(#SVGID_14_);}
	.st14{fill:url(#SVGID_15_);}
	.st15{fill:url(#SVGID_16_);}
	.st16{fill:url(#SVGID_17_);}
	.st17{fill:url(#SVGID_18_);}
</style><g><g><g><linearGradient y2="374.464" x2="219.497" y1="455.835" x1="219.497" gradientUnits="userSpaceOnUse" id="SVGID_1_"><stop style="stop-color:#00B2E3" offset="0"/><stop style="stop-color:#32B9E5" offset="0.25"/><stop style="stop-color:#4AC1E7" offset="0.5"/><stop style="stop-color:#5EC8E9" offset="0.75"/><stop style="stop-color:#6FCFEB" offset="1"/></linearGradient><path data-cppathid="10000" d="M246.9,455.8v-81.4c-18.6,0.8-37.1,4.4-54.7,10.5C204.6,423,224.4,450,246.9,455.8z" class="st0"/><linearGradient y2="301.715" x2="212.6855" y1="367.15" x1="212.6855" gradientUnits="userSpaceOnUse" id="SVGID_2_"><stop style="stop-color:#00B2E3" offset="0"/><stop style="stop-color:#32B9E5" offset="0.25"/><stop style="stop-color:#4AC1E7" offset="0.5"/><stop style="stop-color:#5EC8E9" offset="0.75"/><stop style="stop-color:#6FCFEB" offset="1"/></linearGradient><path data-cppathid="10001" d="M187.1,367.1c19.3-6.5,39.4-10.2,59.8-11v-54.5h-68.3C179,323.8,181.9,345.7,187.1,367.1z" class="st1"/><linearGradient y2="217.976" x2="212.6855" y1="283.429" x1="212.6855" gradientUnits="userSpaceOnUse" id="SVGID_3_"><stop style="stop-color:#00B2E3" offset="0"/><stop style="stop-color:#32B9E5" offset="0.25"/><stop style="stop-color:#4AC1E7" offset="0.5"/><stop style="stop-color:#5EC8E9" offset="0.75"/><stop style="stop-color:#6FCFEB" offset="1"/></linearGradient><path data-cppathid="10002" d="M178.5,283.4h68.3v-54.5c-20.3-0.8-40.5-4.5-59.8-11C181.9,239.4,179,261.4,178.5,283.4z" class="st2"/><linearGradient y2="129.28" x2="219.497" y1="210.651" x1="219.497" gradientUnits="userSpaceOnUse" id="SVGID_4_"><stop style="stop-color:#00B2E3" offset="0"/><stop style="stop-color:#32B9E5" offset="0.25"/><stop style="stop-color:#4AC1E7" offset="0.5"/><stop style="stop-color:#5EC8E9" offset="0.75"/><stop style="stop-color:#6FCFEB" offset="1"/></linearGradient><path data-cppathid="10003" d="M246.9,210.7v-81.4c-22.4,5.9-42.2,32.8-54.7,71C209.8,206.3,228.2,209.8,246.9,210.7z" class="st3"/><linearGradient y2="374.491" x2="292.503" y1="455.862" x1="292.503" gradientUnits="userSpaceOnUse" id="SVGID_5_"><stop style="stop-color:#00B2E3" offset="0"/><stop style="stop-color:#32B9E5" offset="0.25"/><stop style="stop-color:#4AC1E7" offset="0.5"/><stop style="stop-color:#5EC8E9" offset="0.75"/><stop style="stop-color:#6FCFEB" offset="1"/></linearGradient><path data-cppathid="10004" d="M319.9,384.9c-17.6-6.1-36.1-9.6-54.7-10.4v81.4C287.6,450,307.4,423,319.9,384.9z" class="st4"/><linearGradient y2="217.993" x2="299.3145" y1="283.428" x1="299.3145" gradientUnits="userSpaceOnUse" id="SVGID_6_"><stop style="stop-color:#00B2E3" offset="0"/><stop style="stop-color:#32B9E5" offset="0.25"/><stop style="stop-color:#4AC1E7" offset="0.5"/><stop style="stop-color:#5EC8E9" offset="0.75"/><stop style="stop-color:#6FCFEB" offset="1"/></linearGradient><path data-cppathid="10005" d="M324.9,218c-19.3,6.5-39.4,10.2-59.8,11v54.5h68.3C333,261.4,330.1,239.4,324.9,218z" class="st5"/><linearGradient y2="301.714" x2="299.3145" y1="367.167" x1="299.3145" gradientUnits="userSpaceOnUse" id="SVGID_7_"><stop style="stop-color:#00B2E3" offset="0"/><stop style="stop-color:#32B9E5" offset="0.25"/><stop style="stop-color:#4AC1E7" offset="0.5"/><stop style="stop-color:#5EC8E9" offset="0.75"/><stop style="stop-color:#6FCFEB" offset="1"/></linearGradient><path data-cppathid="10006" d="M333.5,301.7h-68.3v54.5c20.3,0.8,40.5,4.5,59.8,11C330.1,345.7,333,323.8,333.5,301.7z" class="st6"/><linearGradient y2="135.771" x2="174.4095" y1="193.399" x1="174.4095" gradientUnits="userSpaceOnUse" id="SVGID_8_"><stop style="stop-color:#00B2E3" offset="0"/><stop style="stop-color:#32B9E5" offset="0.25"/><stop style="stop-color:#4AC1E7" offset="0.5"/><stop style="stop-color:#5EC8E9" offset="0.75"/><stop style="stop-color:#6FCFEB" offset="1"/></linearGradient><path data-cppathid="10007" d="M206.1,135.8c-23.7,7.6-45.4,20.5-63.4,37.8c10,7.8,20.8,14.5,32.3,19.9     C181.5,172.3,192.1,152.8,206.1,135.8z" class="st7"/><linearGradient y2="391.772" x2="174.4095" y1="449.372" x1="174.4095" gradientUnits="userSpaceOnUse" id="SVGID_9_"><stop style="stop-color:#00B2E3" offset="0"/><stop style="stop-color:#32B9E5" offset="0.25"/><stop style="stop-color:#4AC1E7" offset="0.5"/><stop style="stop-color:#5EC8E9" offset="0.75"/><stop style="stop-color:#6FCFEB" offset="1"/></linearGradient><path data-cppathid="10008" d="M142.7,411.6c18,17.2,39.7,30.1,63.4,37.8c-14.1-17-24.6-36.5-31.1-57.6     C163.5,397.1,152.7,403.8,142.7,411.6z" class="st8"/><linearGradient y2="186.835" x2="381.147" y1="283.429" x1="381.147" gradientUnits="userSpaceOnUse" id="SVGID_10_"><stop style="stop-color:#00B2E3" offset="0"/><stop style="stop-color:#32B9E5" offset="0.25"/><stop style="stop-color:#4AC1E7" offset="0.5"/><stop style="stop-color:#5EC8E9" offset="0.75"/><stop style="stop-color:#6FCFEB" offset="1"/></linearGradient><path data-cppathid="10009" d="M351.8,283.4h68.3c-1.9-35.5-15.3-69.4-38.2-96.6c-12.2,9.8-25.5,17.9-39.7,24.4     C348.1,234.8,351.3,259.1,351.8,283.4z" class="st9"/><linearGradient y2="186.853" x2="130.852" y1="283.429" x1="130.852" gradientUnits="userSpaceOnUse" id="SVGID_11_"><stop style="stop-color:#00B2E3" offset="0"/><stop style="stop-color:#32B9E5" offset="0.25"/><stop style="stop-color:#4AC1E7" offset="0.5"/><stop style="stop-color:#5EC8E9" offset="0.75"/><stop style="stop-color:#6FCFEB" offset="1"/></linearGradient><path data-cppathid="10010" d="M169.8,211.2c-14.2-6.4-27.6-14.6-39.7-24.3c-22.9,27.2-36.3,61.1-38.2,96.6h68.3     C160.7,259.1,163.9,234.8,169.8,211.2z" class="st10"/><linearGradient y2="301.714" x2="381.148" y1="398.29" x1="381.148" gradientUnits="userSpaceOnUse" id="SVGID_12_"><stop style="stop-color:#00B2E3" offset="0"/><stop style="stop-color:#32B9E5" offset="0.25"/><stop style="stop-color:#4AC1E7" offset="0.5"/><stop style="stop-color:#5EC8E9" offset="0.75"/><stop style="stop-color:#6FCFEB" offset="1"/></linearGradient><path data-cppathid="10011" d="M342.2,373.9c14.2,6.4,27.6,14.6,39.7,24.3c22.9-27.2,36.3-61.1,38.2-96.6h-68.3     C351.3,326.1,348.1,350.3,342.2,373.9z" class="st11"/><linearGradient y2="391.743" x2="337.5905" y1="449.371" x1="337.5905" gradientUnits="userSpaceOnUse" id="SVGID_13_"><stop style="stop-color:#00B2E3" offset="0"/><stop style="stop-color:#32B9E5" offset="0.25"/><stop style="stop-color:#4AC1E7" offset="0.5"/><stop style="stop-color:#5EC8E9" offset="0.75"/><stop style="stop-color:#6FCFEB" offset="1"/></linearGradient><path data-cppathid="10012" d="M305.9,449.4c23.7-7.6,45.4-20.5,63.4-37.8c-10-7.8-20.8-14.5-32.3-19.9     C330.5,412.8,319.9,432.4,305.9,449.4z" class="st12"/><linearGradient y2="0" x2="256" y1="54.858" x1="256" gradientUnits="userSpaceOnUse" id="SVGID_14_"><stop style="stop-color:#00B2E3" offset="0"/><stop style="stop-color:#32B9E5" offset="0.25"/><stop style="stop-color:#4AC1E7" offset="0.5"/><stop style="stop-color:#5EC8E9" offset="0.75"/><stop style="stop-color:#6FCFEB" offset="1"/></linearGradient><path data-cppathid="10013" d="M484.6,0H27.4C12.3,0,0,12.3,0,27.4v27.4h512V27.4C512,12.3,499.7,0,484.6,0z M45.7,36.6h-9.1     c-5,0-9.1-4.1-9.1-9.1c0-5,4.1-9.1,9.1-9.1h9.1c5,0,9.1,4.1,9.1,9.1C54.9,32.5,50.8,36.6,45.7,36.6z M88.8,33.9     c-0.9,0.8-1.9,1.5-3,1.9c-2.2,1-4.7,1-6.9,0c-1.1-0.5-2.1-1.1-3-1.9c-3.5-3.6-3.5-9.4,0-13c0.9-0.8,1.9-1.5,3-1.9     c2.2-1,4.7-1,6.9,0c1.1,0.5,2.1,1.1,3,1.9C92.3,24.5,92.3,30.3,88.8,33.9z M127.3,30.9c-0.5,1.1-1.1,2.1-1.9,3     c-3.6,3.5-9.4,3.5-13,0c-0.8-0.9-1.5-1.9-1.9-3c-1-2.2-1-4.7,0-6.9c0.5-1.1,1.1-2.1,1.9-3c2.6-2.6,6.6-3.4,10-2s5.7,4.8,5.6,8.5     C128,28.6,127.8,29.8,127.3,30.9z M475.4,36.6H164.6c-5,0-9.1-4.1-9.1-9.1c0-5,4.1-9.1,9.1-9.1h310.9c5,0,9.1,4.1,9.1,9.1     C484.6,32.5,480.5,36.6,475.4,36.6z" class="st13"/><linearGradient y2="129.307" x2="292.503" y1="210.678" x1="292.503" gradientUnits="userSpaceOnUse" id="SVGID_15_"><stop style="stop-color:#00B2E3" offset="0"/><stop style="stop-color:#32B9E5" offset="0.25"/><stop style="stop-color:#4AC1E7" offset="0.5"/><stop style="stop-color:#5EC8E9" offset="0.75"/><stop style="stop-color:#6FCFEB" offset="1"/></linearGradient><path data-cppathid="10014" d="M265.1,129.3v81.4c18.6-0.8,37.1-4.4,54.7-10.4C307.4,162.1,287.6,135.2,265.1,129.3z" class="st14"/><linearGradient y2="73.143" x2="256" y1="512" x1="256" gradientUnits="userSpaceOnUse" id="SVGID_16_"><stop style="stop-color:#00B2E3" offset="0"/><stop style="stop-color:#32B9E5" offset="0.25"/><stop style="stop-color:#4AC1E7" offset="0.5"/><stop style="stop-color:#5EC8E9" offset="0.75"/><stop style="stop-color:#6FCFEB" offset="1"/></linearGradient><path data-cppathid="10015" d="M0,484.6C0,499.7,12.3,512,27.4,512h457.1c15.1,0,27.4-12.3,27.4-27.4V73.1H0V484.6z M121.2,169.4     L121.2,169.4c0.3-0.4,0.5-0.9,0.8-1.3c0.4-0.4,0.9-0.7,1.4-1c34.4-36.6,82.4-57.3,132.6-57.3s98.2,20.7,132.6,57.3     c0.5,0.3,0.9,0.6,1.4,1c0.3,0.4,0.6,0.9,0.8,1.3c64.2,69.6,64.2,176.8,0,246.4c-0.2,0.5-0.5,0.9-0.8,1.3     c-0.4,0.3-0.8,0.6-1.3,0.9c-34.4,36.6-82.4,57.4-132.6,57.4c-50.2,0-98.2-20.7-132.7-57.3c-0.5-0.3-0.9-0.6-1.4-1     c-0.3-0.4-0.6-0.9-0.8-1.3C57.1,346.1,57.1,239,121.2,169.4z" class="st15"/><linearGradient y2="301.714" x2="130.8525" y1="398.308" x1="130.8525" gradientUnits="userSpaceOnUse" id="SVGID_17_"><stop style="stop-color:#00B2E3" offset="0"/><stop style="stop-color:#32B9E5" offset="0.25"/><stop style="stop-color:#4AC1E7" offset="0.5"/><stop style="stop-color:#5EC8E9" offset="0.75"/><stop style="stop-color:#6FCFEB" offset="1"/></linearGradient><path data-cppathid="10016" d="M169.8,373.9c-5.9-23.6-9.1-47.9-9.6-72.2H91.9c1.9,35.5,15.3,69.4,38.2,96.6     C142.2,388.5,155.6,380.4,169.8,373.9z" class="st16"/><linearGradient y2="135.771" x2="337.5905" y1="193.371" x1="337.5905" gradientUnits="userSpaceOnUse" id="SVGID_18_"><stop style="stop-color:#00B2E3" offset="0"/><stop style="stop-color:#32B9E5" offset="0.25"/><stop style="stop-color:#4AC1E7" offset="0.5"/><stop style="stop-color:#5EC8E9" offset="0.75"/><stop style="stop-color:#6FCFEB" offset="1"/></linearGradient><path data-cppathid="10017" d="M369.3,173.5c-18-17.2-39.7-30.1-63.4-37.8c14.1,17,24.6,36.5,31.1,57.6C348.5,188,359.3,181.3,369.3,173.5     z" class="st17"/></g></g></g></svg>