<?xml version="1.0" encoding="UTF-8"?>
<svg xmlns="http://www.w3.org/2000/svg" onmouseup="{ if(window.parent.document.onmouseup) window.parent.document.onmouseup(arguments[0]);}" xml:space="preserve" style="enable-background:new 0 0 322.1 66.2;" viewBox="0 0 322.1 66.2" y="0px" x="0px" id="Layer_1" version="1.1" xmlns:xlink="http://www.w3.org/1999/xlink"><style type="text/css">
	.st0{fill:#DEB209;}
	.st1{enable-background:new    ;}
	.st2{fill:#004B85;}
</style><g id="Layer_2_1_"><g id="Layer_1-2"><path data-cppathid="10000" d="M124.3,21.4l2.3-6l0.4,0.3c1.4,1.2,3.1,2,5,2.1c1.6,0,2.4-0.4,2.2-1.7c-0.2-1-1.3-1.2-2-1.3l-1.6-0.3    c-3-0.6-5.6-2.4-5.6-6c0-5.3,4.6-8.4,9.3-8.4c2.4,0,4.8,0.7,6.8,2l-2,5.3c-1.4-1.1-3-1.8-4.8-2c-0.7,0-2.2,0.3-1.7,1.9    c0.2,0.7,1.2,0.9,1.8,1.1L136,9c3.3,0.8,5.7,2.6,5.7,6.5c0,5.4-4.6,8-9.2,8C129.5,23.4,126.7,22.7,124.3,21.4" class="st0"/><rect data-cppathid="10001" height="22.6" width="7.9" class="st0" y="0.6" x="114.7"/><polygon data-cppathid="10002" points="105.8,0.6 113.9,0.6 105.6,23.2 99.1,23.2 90.8,0.6 98.9,0.6 102.3,14.2   " class="st0"/><path data-cppathid="10003" d="M71.7,23.2h8.2l0.6-2.8h5.9l0.8,2.8h8.2L87.7,0.6H79L71.7,23.2z M83.4,7.2L83.4,7.2C83.6,8.1,85,15,85,15    h-3.1L83.4,7.2z" class="st0"/><path data-cppathid="10004" d="M59.3,16.7h0.5c2.3,0.2,4.3-1.5,4.5-3.8c0-0.2,0-0.4,0-0.7c0-3.2-1.7-4.9-4.6-4.9h-0.5L59.3,16.7z M51.4,0.6    h8.1c7.2,0,12.7,3.3,12.7,11.6c0,6.7-4.5,11-10.8,11h-10L51.4,0.6z" class="st0"/><path data-cppathid="10005" d="M46.6,1.3L47.1,5c0.1,0.9,0.6,3,0,2.7c-0.4-0.2-0.7-1.1-1-2c-0.3-0.9-0.7-1.8-1.1-2.6c-1.5-0.9-3.2-1.5-5-1.5    c-5,0-8.3,3.7-8.3,10.2c0,4.7,2.2,10.3,7.9,10.3c2,0,5.9-0.6,7-3.5c0.5-1.3,0.9-2.5,1.2-2.1s-0.1,1.3-0.2,1.9    c-0.7,2.7-0.7,3.5-0.9,3.6C43.9,23,41,23.6,38,23.5c-9.2,0-12.3-5.4-12.3-10.7C25.5,3.5,31.2-0.4,40.1,0    C42.3,0.1,44.5,0.5,46.6,1.3" class="st0"/><path data-cppathid="10006" d="M19.5,1.7l-1.5-0.5c-0.5-0.4,0.1-0.6,0.1-0.6c2.5,0.3,5,0.3,7.4-0.1c0,0,0.5,0.1,0.1,0.5L24,1.8    c-1.1,0.5-1.1,0.2-1.1,1.5v11.5c0,9-9.1,8.8-10.9,8.8c-0.9,0-9.2,0-9.2-7.2V4.1c0-2.1,0.2-2.1-0.5-2.3L0.1,1c0,0-0.4-0.5,0.3-0.5    c3.4,0.3,6.8,0.3,10.1,0c0,0,0.5,0.1,0.2,0.5L8.9,1.5C7.6,2.1,7.8,1.7,7.7,3v12c0,2.9,1.5,6.6,6.3,6.6c6.5,0,6.5-5.6,6.5-6.9V2.9    C20.6,1.8,20.5,2.1,19.5,1.7" class="st0"/><g class="st1"><path data-cppathid="10007" d="M2.2,36.7h13.4v2.6H5.2v5.8h10.2v2.6H5.2v8.9h-3V36.7z" class="st2"/><path data-cppathid="10008" d="M18.4,38.5c0-1,0.8-1.7,1.7-1.7c1,0,1.7,0.8,1.7,1.7s-0.8,1.7-1.7,1.7C19.2,40.3,18.4,39.5,18.4,38.5z      M18.8,42.2h2.7v14.5h-2.7V42.2z" class="st2"/><path data-cppathid="10009" d="M35.6,47.4c0-2.4-1.2-3.2-3.1-3.2c-1.7,0-3.2,1-4,2.1v10.3h-2.7V42.2h2.7v2c1-1.2,2.9-2.4,5.1-2.4     c3.1,0,4.6,1.6,4.6,4.7v10.2h-2.7V47.4z" class="st2"/><path data-cppathid="10010" d="M51.5,55.1c-1.1,1.3-2.8,2-4.7,2c-2.4,0-5-1.6-5-4.8c0-3.3,2.6-4.7,5-4.7c1.9,0,3.6,0.6,4.7,1.9V47     c0-1.8-1.5-2.9-3.5-2.9c-1.6,0-3.1,0.6-4.3,1.9l-1.2-1.9c1.6-1.6,3.6-2.4,5.9-2.4c3.1,0,5.8,1.4,5.8,5.1v9.8h-2.7V55.1z M51.5,51     c-0.8-1.1-2.2-1.7-3.7-1.7c-2,0-3.3,1.2-3.3,2.9s1.4,2.9,3.3,2.9c1.5,0,2.9-0.6,3.7-1.6V51z" class="st2"/><path data-cppathid="10011" d="M68.3,47.4c0-2.4-1.2-3.2-3.1-3.2c-1.7,0-3.2,1-4,2.1v10.3h-2.7V42.2h2.7v2c1-1.2,2.9-2.4,5.1-2.4     c3.1,0,4.6,1.6,4.6,4.7v10.2h-2.7V47.4z" class="st2"/><path data-cppathid="10012" d="M81.8,41.8c2.7,0,4.4,1.1,5.4,2.5L85.4,46c-0.9-1.2-2-1.8-3.5-1.8c-2.9,0-4.7,2.2-4.7,5.2s1.8,5.2,4.7,5.2     c1.5,0,2.6-0.6,3.5-1.8l1.8,1.7c-1,1.4-2.7,2.5-5.4,2.5c-4.4,0-7.4-3.3-7.4-7.6S77.4,41.8,81.8,41.8z" class="st2"/><path data-cppathid="10013" d="M96.6,41.8c4.4,0,7,3.4,7,7.8v0.7H92.2c0.2,2.5,2,4.5,4.9,4.5c1.5,0,3.2-0.6,4.3-1.7l1.3,1.8     c-1.4,1.4-3.5,2.2-5.8,2.2c-4.3,0-7.5-3.1-7.5-7.6C89.3,45.2,92.3,41.8,96.6,41.8z M92.1,48.4h8.9c-0.1-1.9-1.4-4.3-4.4-4.3     C93.7,44,92.3,46.4,92.1,48.4z" class="st2"/><path data-cppathid="10014" d="M123.7,55.1c-1.1,1.3-2.8,2-4.7,2c-2.4,0-5-1.6-5-4.8c0-3.3,2.6-4.7,5-4.7c1.9,0,3.6,0.6,4.7,1.9V47     c0-1.8-1.5-2.9-3.5-2.9c-1.6,0-3.1,0.6-4.3,1.9l-1.2-1.9c1.6-1.6,3.6-2.4,5.9-2.4c3.1,0,5.8,1.4,5.8,5.1v9.8h-2.7V55.1z      M123.7,51c-0.8-1.1-2.2-1.7-3.7-1.7c-2,0-3.3,1.2-3.3,2.9s1.4,2.9,3.3,2.9c1.5,0,2.9-0.6,3.7-1.6V51z" class="st2"/><path data-cppathid="10015" d="M140.5,47.4c0-2.4-1.2-3.2-3.1-3.2c-1.7,0-3.2,1-4,2.1v10.3h-2.7V42.2h2.7v2c1-1.2,2.9-2.4,5.1-2.4     c3.1,0,4.6,1.6,4.6,4.7v10.2h-2.7V47.4z" class="st2"/><path data-cppathid="10016" d="M157.8,54.6c-1.1,1.4-2.8,2.4-4.7,2.4c-3.8,0-6.5-2.9-6.5-7.6c0-4.7,2.7-7.6,6.5-7.6c1.9,0,3.6,0.9,4.7,2.5     v-7.6h2.7v20h-2.7V54.6z M157.8,46.3c-0.8-1.2-2.4-2.1-4-2.1c-2.7,0-4.4,2.2-4.4,5.2c0,3,1.7,5.2,4.4,5.2c1.6,0,3.3-0.9,4-2.1     V46.3z" class="st2"/><path data-cppathid="10017" d="M172.6,36.7h9.4c3.6,0,5.6,2.2,5.6,5.1c0,2.5-1.6,4.2-3.5,4.6c2.1,0.3,3.9,2.5,3.9,4.9     c0,3.1-2.1,5.4-5.8,5.4h-9.6V36.7z M181.4,45.1c2,0,3.1-1.3,3.1-2.9c0-1.6-1.1-2.9-3.1-2.9h-5.8v5.8H181.4z M181.6,54     c2.1,0,3.4-1.2,3.4-3.2c0-1.6-1.1-3.1-3.4-3.1h-6V54H181.6z" class="st2"/><path data-cppathid="10018" d="M201.5,54.7c-1.1,1.2-2.9,2.3-5.2,2.3c-3.1,0-4.6-1.6-4.6-4.6V42.2h2.7v9.3c0,2.4,1.2,3.1,3.1,3.1     c1.7,0,3.2-1,4-2V42.2h2.7v14.5h-2.7V54.7z" class="st2"/><path data-cppathid="10019" d="M218.8,54.6C217.7,56,216,57,214,57c-3.8,0-6.5-2.9-6.5-7.6c0-4.7,2.7-7.6,6.5-7.6c1.9,0,3.6,0.9,4.7,2.5     v-7.6h2.7v20h-2.7V54.6z M218.8,46.3c-0.8-1.2-2.4-2.1-4-2.1c-2.7,0-4.4,2.2-4.4,5.2c0,3,1.7,5.2,4.4,5.2c1.7,0,3.3-0.9,4-2.1     V46.3z" class="st2"/><path data-cppathid="10020" d="M227,58.4c1.2,1.4,2.7,1.9,4.6,1.9c2.2,0,4.5-1.1,4.5-4.1v-1.9c-1.1,1.4-2.8,2.5-4.8,2.5     c-3.7,0-6.4-2.8-6.4-7.5c0-4.6,2.7-7.5,6.4-7.5c1.9,0,3.6,0.9,4.8,2.5v-2.1h2.7v13.9c0,5-3.6,6.5-7.2,6.5c-2.4,0-4.2-0.5-5.9-2.2     L227,58.4z M236.1,46.3c-0.8-1.2-2.4-2.1-4-2.1c-2.7,0-4.4,2.1-4.4,5.1c0,3,1.7,5.1,4.4,5.1c1.6,0,3.3-1,4-2.2V46.3z" class="st2"/><path data-cppathid="10021" d="M249.5,41.8c4.4,0,7,3.4,7,7.8v0.7h-11.5c0.2,2.5,2,4.5,4.9,4.5c1.5,0,3.2-0.6,4.3-1.7l1.3,1.8     c-1.4,1.4-3.5,2.2-5.8,2.2c-4.3,0-7.5-3.1-7.5-7.6C242.2,45.2,245.2,41.8,249.5,41.8z M245,48.4h8.8c-0.1-1.9-1.4-4.3-4.4-4.3     C246.6,44,245.2,46.4,245,48.4z" class="st2"/><path data-cppathid="10022" d="M260.5,53.5v-8.9h-2.4v-2.4h2.4v-4h2.7v4h2.9v2.4h-2.9v8.3c0,1,0.5,1.8,1.4,1.8c0.6,0,1.2-0.3,1.5-0.6l0.7,2     c-0.6,0.5-1.4,0.9-2.8,0.9C261.6,57,260.5,55.7,260.5,53.5z" class="st2"/></g></g></g></svg>