<?xml version="1.0" encoding="UTF-8"?>
<svg xmlns="http://www.w3.org/2000/svg" onmouseup="{ if(window.parent.document.onmouseup) window.parent.document.onmouseup(arguments[0]);}" viewBox="0 0 266.73 62.54"><defs><style>.cls-1{fill:#deb209;}.cls-2{fill:#004b85;}</style></defs><g data-name="Layer 2" id="Layer_2"><g data-name="Layer 1" id="Layer_1-2"><path data-cppathid="10000" d="M124.27,21.43l2.26-6,.4.34a8.82,8.82,0,0,0,5,2.14c1.59,0,2.37-.39,2.16-1.73-.16-1-1.29-1.19-2-1.33l-1.56-.31c-3-.56-5.58-2.43-5.58-6,0-5.35,4.62-8.35,9.26-8.35a12.07,12.07,0,0,1,6.76,2l-2,5.31a8.81,8.81,0,0,0-4.78-1.95c-.68,0-2.23.33-1.74,1.91.22.67,1.18.95,1.78,1.1l1.75.42c3.28.77,5.66,2.63,5.66,6.46,0,5.38-4.64,8-9.25,8a18.2,18.2,0,0,1-8.21-2.07" class="cls-1"/><rect data-cppathid="10001" height="22.57" width="7.9" y="0.59" x="114.7" class="cls-1"/><polygon data-cppathid="10002" points="105.79 0.59 113.89 0.59 105.62 23.16 99.06 23.16 90.82 0.59 98.88 0.59 102.34 14.21 105.79 0.59" class="cls-1"/><path data-cppathid="10003" d="M71.66,23.16h8.2l.63-2.83h5.86l.77,2.83h8.21L87.65.59H79Zm11.77-16h0C83.58,8.07,85,15,85,15H81.88Z" class="cls-1"/><path data-cppathid="10004" d="M59.32,16.68h.53a4.2,4.2,0,0,0,4.53-4.51c0-3.17-1.71-4.94-4.57-4.94h-.49ZM51.37.59h8.09c7.21,0,12.73,3.32,12.73,11.61,0,6.68-4.5,11-10.81,11h-10Z" class="cls-1"/><path data-cppathid="10005" d="M46.64,1.3,47.06,5c.1.88.6,3,0,2.71-.38-.17-.7-1.13-1-2a18.34,18.34,0,0,0-1.13-2.62,10.49,10.49,0,0,0-5-1.55c-5,0-8.27,3.65-8.27,10.16,0,4.67,2.24,10.28,7.93,10.28,2,0,5.94-.65,7-3.55.48-1.31.92-2.48,1.24-2.12s-.07,1.31-.21,1.87c-.67,2.69-.71,3.51-.92,3.61a20.24,20.24,0,0,1-8.75,1.72c-9.18,0-12.34-5.35-12.34-10.71C25.53,3.54,31.23-.37,40.07,0A20.71,20.71,0,0,1,46.64,1.3" class="cls-1"/><path data-cppathid="10006" d="M19.55,1.71,18.09,1.2c-.5-.44.1-.57.1-.57A31.76,31.76,0,0,0,25.61.58s.45.09.14.46L24,1.78c-1.13.5-1.13.22-1.13,1.45V14.74c0,9-9.15,8.79-10.93,8.79-.85,0-9.24,0-9.24-7.22V4.13c0-2.12.23-2.06-.48-2.31L.1,1S-.26.51.38.54a59.2,59.2,0,0,0,10.15,0s.52.12.18.49l-1.77.5c-1.34.6-1.16.14-1.2,1.52l0,12c0,2.94,1.52,6.58,6.28,6.58,6.49,0,6.55-5.6,6.55-6.85V2.94c.07-1.12-.07-.8-1.07-1.23" class="cls-1"/><path data-cppathid="10007" d="M2.22,36.65H15.66v2.64H5.22v5.85H15.45v2.64H5.22v8.88h-3Z" class="cls-2"/><path data-cppathid="10008" d="M18.42,38.51a1.73,1.73,0,0,1,1.74-1.71,1.72,1.72,0,0,1,1.74,1.71,1.74,1.74,0,0,1-1.74,1.74A1.76,1.76,0,0,1,18.42,38.51Zm.42,3.66h2.7V56.66h-2.7Z" class="cls-2"/><path data-cppathid="10009" d="M35.61,47.39c0-2.4-1.23-3.18-3.09-3.18a5.18,5.18,0,0,0-4,2.1V56.66h-2.7V42.17h2.7v2a6.91,6.91,0,0,1,5.13-2.4c3.06,0,4.65,1.62,4.65,4.68V56.66h-2.7Z" class="cls-2"/><path data-cppathid="10010" d="M51.54,55.07a6.21,6.21,0,0,1-4.74,2,4.82,4.82,0,0,1-5-4.8c0-3.3,2.61-4.74,5-4.74a6,6,0,0,1,4.74,1.92V47c0-1.8-1.47-2.88-3.54-2.88A5.93,5.93,0,0,0,43.65,46l-1.17-1.86a8.15,8.15,0,0,1,5.94-2.37c3.15,0,5.82,1.38,5.82,5.07v9.78h-2.7Zm0-4a4.59,4.59,0,0,0-3.72-1.65c-2,0-3.33,1.17-3.33,2.88s1.38,2.88,3.33,2.88a4.59,4.59,0,0,0,3.72-1.65Z" class="cls-2"/><path data-cppathid="10011" d="M68.34,47.39c0-2.4-1.23-3.18-3.09-3.18a5.18,5.18,0,0,0-4,2.1V56.66h-2.7V42.17h2.7v2a6.91,6.91,0,0,1,5.13-2.4c3.06,0,4.65,1.62,4.65,4.68V56.66h-2.7Z" class="cls-2"/><path data-cppathid="10012" d="M81.81,41.81a6.33,6.33,0,0,1,5.43,2.55L85.44,46a4,4,0,0,0-3.51-1.8c-2.85,0-4.68,2.19-4.68,5.19s1.83,5.22,4.68,5.22a4.12,4.12,0,0,0,3.51-1.8l1.8,1.65A6.33,6.33,0,0,1,81.81,57c-4.38,0-7.38-3.27-7.38-7.62A7.21,7.21,0,0,1,81.81,41.81Z" class="cls-2"/><path data-cppathid="10013" d="M96.57,41.81c4.35,0,7.05,3.39,7.05,7.83v.66H92.16a4.75,4.75,0,0,0,4.92,4.5,6.16,6.16,0,0,0,4.29-1.71l1.26,1.77A8.15,8.15,0,0,1,96.81,57a7.25,7.25,0,0,1-7.5-7.62A7.29,7.29,0,0,1,96.57,41.81Zm-4.44,6.54H101A4.29,4.29,0,0,0,96.57,44,4.44,4.44,0,0,0,92.13,48.35Z" class="cls-2"/><path data-cppathid="10014" d="M123.69,55.07A6.21,6.21,0,0,1,119,57a4.82,4.82,0,0,1-5-4.8c0-3.3,2.61-4.74,5-4.74a6,6,0,0,1,4.74,1.92V47c0-1.8-1.47-2.88-3.54-2.88A5.93,5.93,0,0,0,115.8,46l-1.17-1.86a8.15,8.15,0,0,1,5.94-2.37c3.15,0,5.82,1.38,5.82,5.07v9.78h-2.7Zm0-4A4.59,4.59,0,0,0,120,49.37c-2,0-3.33,1.17-3.33,2.88S118,55.13,120,55.13a4.59,4.59,0,0,0,3.72-1.65Z" class="cls-2"/><path data-cppathid="10015" d="M140.49,47.39c0-2.4-1.23-3.18-3.09-3.18a5.18,5.18,0,0,0-4,2.1V56.66h-2.7V42.17h2.7v2a6.91,6.91,0,0,1,5.13-2.4c3.06,0,4.65,1.62,4.65,4.68V56.66h-2.7Z" class="cls-2"/><path data-cppathid="10016" d="M157.8,54.59A6,6,0,0,1,153.06,57c-3.78,0-6.48-2.85-6.48-7.59s2.7-7.62,6.48-7.62a5.9,5.9,0,0,1,4.74,2.46V36.65h2.7v20h-2.7Zm0-8.25a5,5,0,0,0-4-2.13c-2.7,0-4.38,2.19-4.38,5.22s1.68,5.19,4.38,5.19a5,5,0,0,0,4-2.1Z" class="cls-2"/><path data-cppathid="10017" d="M172.62,36.65H182c3.57,0,5.64,2.19,5.64,5.1a4.53,4.53,0,0,1-3.48,4.59A5,5,0,0,1,188,51.26c0,3.15-2.1,5.4-5.79,5.4h-9.63Zm8.82,8.49a2.93,2.93,0,1,0,0-5.85h-5.82v5.85Zm.15,8.88c2.1,0,3.36-1.2,3.36-3.15a3.05,3.05,0,0,0-3.36-3.09h-6V54Z" class="cls-2"/><path data-cppathid="10018" d="M201.48,54.68A7.16,7.16,0,0,1,196.32,57c-3.09,0-4.62-1.56-4.62-4.62V42.17h2.7V51.5c0,2.4,1.2,3.12,3.06,3.12a5.24,5.24,0,0,0,4-2V42.17h2.7V56.66h-2.7Z" class="cls-2"/><path data-cppathid="10019" d="M218.79,54.59A6,6,0,0,1,214.05,57c-3.78,0-6.48-2.85-6.48-7.59s2.7-7.62,6.48-7.62a5.9,5.9,0,0,1,4.74,2.46V36.65h2.7v20h-2.7Zm0-8.25a5,5,0,0,0-4-2.13c-2.7,0-4.38,2.19-4.38,5.22s1.68,5.19,4.38,5.19a5,5,0,0,0,4-2.1Z" class="cls-2"/><path data-cppathid="10020" d="M227,58.4a5.65,5.65,0,0,0,4.65,1.92c2.25,0,4.5-1.08,4.5-4.14V54.29a6.11,6.11,0,0,1-4.77,2.49c-3.75,0-6.45-2.76-6.45-7.5s2.7-7.47,6.45-7.47a5.91,5.91,0,0,1,4.77,2.46v-2.1h2.7V56.09c0,5-3.63,6.45-7.2,6.45a7.79,7.79,0,0,1-5.94-2.16Zm9.15-12.06a5.05,5.05,0,0,0-4-2.13c-2.7,0-4.38,2.1-4.38,5.07s1.68,5.1,4.38,5.1a5.08,5.08,0,0,0,4-2.16Z" class="cls-2"/><path data-cppathid="10021" d="M249.48,41.81c4.35,0,7,3.39,7,7.83v.66H245.07A4.75,4.75,0,0,0,250,54.8a6.16,6.16,0,0,0,4.29-1.71l1.26,1.77A8.15,8.15,0,0,1,249.72,57a7.25,7.25,0,0,1-7.5-7.62A7.29,7.29,0,0,1,249.48,41.81ZM245,48.35h8.85A4.29,4.29,0,0,0,249.48,44,4.44,4.44,0,0,0,245,48.35Z" class="cls-2"/><path data-cppathid="10022" d="M260.46,53.45V44.54h-2.4V42.17h2.4v-4h2.7v4h2.94v2.37h-2.94v8.31c0,1,.48,1.77,1.41,1.77a2.08,2.08,0,0,0,1.47-.57l.69,2a3.85,3.85,0,0,1-2.82.93C261.63,57,260.46,55.73,260.46,53.45Z" class="cls-2"/></g></g></svg>