<?xml version="1.0" encoding="UTF-8"?>
<svg xmlns="http://www.w3.org/2000/svg" onmouseup="{ if(window.parent.document.onmouseup) window.parent.document.onmouseup(arguments[0]);}" xml:space="preserve" style="enable-background:new 0 0 427.7 512;" viewBox="0 0 427.7 512" y="0px" x="0px" id="Layer_1" version="1.1" xmlns:xlink="http://www.w3.org/1999/xlink"><style type="text/css">
	.st0{fill:#C79A83;}
	.st1{fill:#42434D;}
	.st2{fill:#E0B7A3;}
	.st3{fill:#521475;}
	.st4{fill:#A07765;}
	.st5{fill:#481268;}
	.st6{fill:#7E1FB5;}
	.st7{fill:#4D4E59;}
	.st8{fill:#F2D1C2;}
</style><g id="Layer_2_1_"><g id="Layer_1-2"><path data-cppathid="10000" d="M405.3,252.6c-8.9,6.7-12.7,18.3-9.4,29c10.8,35.9-16.9,74-54.3,74.8c-11.2,0.2-21,7.4-24.6,17.9    c-0.5,1.5-1.1,3-1.8,4.5c-1.1-0.2-2.2-0.4-3.4-0.5c1.1,0.1,2.2,0.3,3.4,0.5l0,0c39.6,6.7,68.6,41,68.6,81.2v43.3    c0,4.9-4,8.8-8.8,8.8l0,0H52.7c-4.9,0-8.8-4-8.8-8.8v-43.4c0-40.2,29-74.5,68.6-81.2l0,0c1.1-0.2,2.2-0.4,3.4-0.5    c-1.1,0.1-2.2,0.3-3.4,0.5c-0.7-1.5-1.3-3-1.8-4.5c-3.7-10.5-13.5-17.7-24.6-17.9c-37.4-0.8-65.1-38.9-54.3-74.8    c3.3-10.7-0.5-22.3-9.4-29c-29.8-22.6-29.8-69.8,0-92.4c8.9-6.7,12.7-18.3,9.4-29C21,95.3,48.7,57.2,86.1,56.4    c11.2-0.2,21-7.4,24.6-17.9c12.3-35.3,57.1-49.9,87.9-28.5c9.2,6.4,21.3,6.4,30.5,0c30.8-21.4,75.5-6.8,87.9,28.5    c3.7,10.5,13.5,17.7,24.6,17.9c37.4,0.8,65.1,38.9,54.3,74.8c-3.2,10.7,0.5,22.3,9.4,29C435.1,182.8,435.1,230,405.3,252.6    L405.3,252.6z" class="st0"/><path data-cppathid="10001" d="M104.6,223c0,44.2,26.6,84.1,67.5,101l-0.2,0.4v7.6c0,25.2-20.5,45.6-45.7,45.6c0,0,0,0,0,0    c-4.6,0-9.1,0.4-13.7,1.1c-0.7-1.5-1.3-3-1.8-4.5c-3.7-10.5-13.5-17.7-24.6-17.9c-37.4-0.8-65.1-38.9-54.3-74.8    c3.3-10.7-0.5-22.3-9.4-29c-29.8-22.6-29.8-69.8,0-92.4c8.9-6.7,12.7-18.3,9.4-29C21,95.3,48.7,57.2,86.1,56.4    c11.2-0.2,21-7.4,24.6-17.9c12.3-35.3,57.1-49.9,87.9-28.5c9.2,6.4,21.3,6.4,30.5,0c30.8-21.4,75.5-6.8,87.9,28.5    c3.7,10.5,13.5,17.7,24.6,17.9c37.4,0.8,65.1,38.9,54.3,74.8c-3.2,10.7,0.5,22.3,9.4,29c29.8,22.6,29.8,69.8,0,92.4    c-8.9,6.7-12.7,18.3-9.4,29c10.8,35.9-16.9,74-54.3,74.8c-11.2,0.2-21,7.4-24.6,17.9c-0.5,1.5-1.1,3.1-1.8,4.5    c-4.5-0.8-9.1-1.1-13.6-1.1c-25.2,0-45.7-20.4-45.7-45.6c0,0,0-0.1,0-0.1v-7.5l-0.2-0.4c40.9-16.9,67.5-56.8,67.5-101v-45.1    c0-43.9-35.6-79.5-79.5-79.5h-30.7c-3.7,0-7,2.3-8.3,5.7c-16.3,43-50.5,72.3-93.8,85.5c-3.7,1.1-6.3,4.6-6.3,8.4    C104.6,198.2,104.6,223,104.6,223z" class="st1"/><path data-cppathid="10002" d="M323.1,177.9V223c0,60.3-48.9,109.2-109.2,109.2S104.6,283.3,104.6,223v-24.8c0-3.9,2.6-7.3,6.3-8.4    c46.8-14.3,78.7-45.8,93.8-85.5c1.3-3.4,4.6-5.7,8.2-5.7h30.7C287.5,98.5,323.1,134,323.1,177.9L323.1,177.9z" class="st2"/><path data-cppathid="10003" d="M383.8,459.9v43.3c0,4.9-4,8.8-8.8,8.8H52.7c-4.9,0-8.8-4-8.8-8.8v-43.3c0-36.7,24.3-69,59.6-79.1    c20.1-5.8,26.3-0.3,41.6-7.3l0.3,0.6l63,48.8c3.2,2.5,7.6,2.5,10.8,0l63-48.8l0.3-0.6c15.4,7,21.5,1.5,41.6,7.3    C359.4,390.9,383.8,423.1,383.8,459.9L383.8,459.9z" class="st3"/><path data-cppathid="10004" d="M112.5,378.7c1.1-0.2,2.2-0.4,3.4-0.5C114.8,378.4,113.6,378.5,112.5,378.7L112.5,378.7z" class="st0"/><path data-cppathid="10005" d="M315.1,378.7L315.1,378.7c-1.1-0.2-2.2-0.4-3.4-0.5C312.9,378.3,314,378.5,315.1,378.7z" class="st0"/><path data-cppathid="10006" d="M257,342.5c-27.2,11.4-57.1,12.3-86.4,0c1.5-6.2,1.2-10.2,1.2-18.1l0.2-0.4c26.7,11,56.8,11,83.5,0l0.2,0.4    C255.8,332.3,255.5,336.3,257,342.5z" class="st4"/><path data-cppathid="10007" d="M112.5,378.7c1.1-0.2,2.2-0.4,3.4-0.5C114.8,378.4,113.6,378.5,112.5,378.7L112.5,378.7z" class="st0"/><path data-cppathid="10008" d="M315.1,378.7L315.1,378.7c-1.1-0.2-2.2-0.4-3.4-0.5C312.9,378.3,314,378.5,315.1,378.7z" class="st0"/><path data-cppathid="10009" d="M222.7,420.2V512H205v-91.8l3.4,2.6c3.2,2.5,7.6,2.5,10.8,0L222.7,420.2z" class="st5"/><path data-cppathid="10010" d="M163.6,388.2c5.2,4,2.5,12.5-4.2,12.6c-45.4-0.1-82.4,36.6-82.5,82.1c0,0.1,0,0.1,0,0.2v29H52.7    c-4.9,0-8.8-4-8.8-8.8v-43.3c0-45.4,36.8-82.3,82.3-82.3c0,0,0,0,0,0c6.5,0,13-1.4,18.9-4.1l0.3,0.6L163.6,388.2z" class="st6"/><path data-cppathid="10011" d="M264,388.2c-5.2,4-2.5,12.5,4.2,12.6c45.4-0.1,82.4,36.6,82.5,82c0,0.1,0,0.1,0,0.2v29h24.3    c4.9,0,8.8-4,8.8-8.8v-43.3c0-45.4-36.8-82.3-82.3-82.3l0,0c-6.6,0-13-1.4-19-4.1l-0.3,0.6L264,388.2z" class="st5"/><path data-cppathid="10012" d="M264.1,0.1c22.2,1.1,29.4,29.9,10.8,41.9c-0.6,0.4-1.1,0.7-1.7,1.1c-9.2,6.4-21.3,6.4-30.5,0    c-30.8-21.4-75.6-6.8-87.9,28.6c-3.7,10.5-13.5,17.7-24.6,17.9c-37.4,0.8-65.1,38.9-54.3,74.8c3.2,10.7-0.5,22.3-9.4,29    c-29.8,22.6-29.8,69.8,0,92.4c8.9,6.7,12.7,18.3,9.4,29c-6.7,22.1-36,22.3-43.1,2.1c-4.1-11.3-4.5-23.7-1-35.2    c3.3-10.7-0.5-22.3-9.4-29c-29.8-22.6-29.8-69.8,0-92.4c8.9-6.7,12.7-18.3,9.4-29C21,95.3,48.7,57.2,86.1,56.4    c11.1-0.2,21-7.4,24.6-17.9c12.3-35.3,57.1-49.9,87.9-28.5c9.2,6.4,21.3,6.4,30.5,0C239.3,2.9,251.7-0.6,264.1,0.1z" class="st7"/><path data-cppathid="10013" d="M188.8,294.1c17.8,10.9,3.9,38.2-15.5,30.4c-41.5-16.6-68.7-56.8-68.7-101.5v-24.9c0-3.9,2.6-7.3,6.3-8.4    c2.2-0.7,4.4-1.4,6.7-2.2c7.4-2.7,15.6,1.2,18.2,8.6c0.6,1.5,0.8,3.2,0.8,4.8C136.6,241.6,158.1,275.2,188.8,294.1L188.8,294.1z" class="st8"/></g></g></svg>