<?xml version="1.0" encoding="UTF-8"?>
<svg xmlns="http://www.w3.org/2000/svg" onmouseup="{ if(window.parent.document.onmouseup) window.parent.document.onmouseup(arguments[0]);}" xml:space="preserve" style="enable-background:new 0 0 116.6 116.6;" viewBox="0 0 116.6 116.6" y="0px" x="0px" id="Capa_1" version="1.1" xmlns:xlink="http://www.w3.org/1999/xlink"><style type="text/css">
	.st0{fill:#FFFFFF;}
</style><g><g><path data-cppathid="10000" d="M87.9,48l-3.3,5.4c-0.6-0.3-1.3-0.4-2.1-0.4c-0.5,0-1,0.1-1.5,0.2l-3.3-5.9c-0.9,0.3-1.7,0.8-2.5,1.4l3.4,6.1    c-0.8,0.9-1.3,2.1-1.3,3.5c0,2.9,2.3,5.2,5.2,5.2c2.9,0,5.2-2.3,5.2-5.2c0-1.1-0.3-2.1-0.9-3l3.4-5.5C89.5,49.1,88.7,48.5,87.9,48    z M82.5,61.5c-1.9,0-3.4-1.5-3.4-3.4s1.5-3.4,3.4-3.4s3.4,1.5,3.4,3.4C85.9,60,84.3,61.5,82.5,61.5z" class="st0"/><path data-cppathid="10001" d="M94.3,43.2l8.8-14.2c0.5,0.1,0.9,0.2,1.4,0.2c2.9,0,5.2-2.3,5.2-5.2s-2.3-5.2-5.2-5.2c-2.9,0-5.2,2.3-5.2,5.2    c0,1.4,0.5,2.6,1.4,3.5l-8.8,14.1C92.7,42,93.5,42.6,94.3,43.2z M104.5,20.6c1.9,0,3.4,1.5,3.4,3.4c0,1.9-1.5,3.4-3.4,3.4    c-1.9,0-3.4-1.5-3.4-3.4C101.2,22.1,102.7,20.6,104.5,20.6z" class="st0"/><path data-cppathid="10002" d="M65.5,35.6c0.3,0.1,0.7,0.1,1,0.1c0.5,0,0.9-0.1,1.4-0.2l3.6,6.5c0.8-0.5,1.6-1,2.5-1.4L70.3,34    c0.9-0.9,1.4-2.2,1.4-3.6c0-2.9-2.3-5.2-5.2-5.2s-5.2,2.3-5.2,5.2c0,1.5,0.7,2.9,1.7,3.8L51.2,58.8c-0.5-0.1-1-0.2-1.5-0.2    c-0.5,0-1,0.1-1.4,0.2L37.7,39.3c0.7-0.9,1.1-2,1.1-3.3c0-2.9-2.3-5.2-5.2-5.2s-5.2,2.3-5.2,5.2c0,0.5,0.1,1.1,0.2,1.6L8.8,50    c-0.9-0.8-2.2-1.4-3.5-1.4C2.3,48.6,0,51,0,53.9s2.3,5.2,5.2,5.2c2.9,0,5.2-2.3,5.2-5.2c0-0.5-0.1-1-0.2-1.5l20-12.4    c0.9,0.8,2.1,1.3,3.4,1.3c0.6,0,1.2-0.1,1.8-0.3l10.5,19.3c-0.9,0.9-1.4,2.2-1.4,3.5c0,2.9,2.3,5.2,5.2,5.2c2.9,0,5.2-2.3,5.2-5.2    c0-1.3-0.5-2.6-1.3-3.5L65.5,35.6z M66.5,27.1c1.9,0,3.4,1.5,3.4,3.4c0,1.9-1.5,3.4-3.4,3.4c-1.9,0-3.4-1.5-3.4-3.4    S64.6,27.1,66.5,27.1z M5.2,57.2c-1.9,0-3.4-1.5-3.4-3.4c0-1.9,1.5-3.4,3.4-3.4c1.9,0,3.4,1.5,3.4,3.4C8.6,55.7,7.1,57.2,5.2,57.2    z M33.6,39.4c-1.9,0-3.4-1.5-3.4-3.4c0-1.9,1.5-3.4,3.4-3.4S37,34.2,37,36C37,37.9,35.5,39.4,33.6,39.4z M49.7,67.2    c-1.9,0-3.4-1.5-3.4-3.4c0-1.9,1.5-3.4,3.4-3.4c1.9,0,3.4,1.5,3.4,3.4C53.1,65.7,51.6,67.2,49.7,67.2z" class="st0"/><path data-cppathid="10003" d="M116,94l-20.9-24c5.8-6.6,6-16.7,0.1-23.6c-6.5-7.4-17.8-8.2-25.3-1.7c-7.4,6.5-8.2,17.8-1.7,25.3    c6,6.8,16,8,23.3,3.2l20.9,24c0.9,1,2.4,1.1,3.4,0.2S116.9,95,116,94z M90.3,68.1c-5.5,4.8-13.8,4.2-18.5-1.3    C67,61.3,67.6,53,73,48.2c5.5-4.8,13.8-4.2,18.5,1.3C96.3,55,95.8,63.3,90.3,68.1z" class="st0"/></g></g></svg>